<svg width="11" height="19" viewBox="0 0 11 19" fill="none" xmlns="http://www.w3.org/2000/svg">
<path d="M3.62869 6.99967V13.7291C3.63648 14.2222 3.83784 14.6925 4.18931 15.0385C4.54078 15.3844 5.01418 15.5783 5.50736 15.5783C6.00053 15.5783 6.47394 15.3844 6.82541 15.0385C7.17688 14.6925 7.37824 14.2222 7.38603 13.7291L7.39212 4.89012C7.39723 4.46865 7.31864 4.05035 7.16088 3.65948C7.00313 3.26861 6.76936 2.91294 6.47313 2.61309C6.17689 2.31324 5.82408 2.07517 5.43515 1.91268C5.04623 1.7502 4.62891 1.66653 4.20741 1.66653C3.7859 1.66653 3.36859 1.7502 2.97966 1.91268C2.59073 2.07517 2.23793 2.31324 1.94169 2.61309C1.64545 2.91294 1.41168 3.26861 1.25393 3.65948C1.09618 4.05035 1.01758 4.46865 1.0227 4.89012V13.7887C1.03972 14.9648 1.51888 16.087 2.35662 16.9127C3.19435 17.7384 4.32337 18.2013 5.49962 18.2013C6.67588 18.2013 7.8049 17.7384 8.64263 16.9127C9.48037 16.087 9.95953 14.9648 9.97655 13.7887V5.47329" stroke="#3F566B" stroke-width="1.50263" stroke-miterlimit="10" stroke-linecap="square"/>
</svg>
