<svg width="17" height="17" viewBox="0 0 17 17" fill="none" xmlns="http://www.w3.org/2000/svg">
<path d="M12.116 0.166016C14.941 0.166016 16.8327 2.14935 16.8327 5.09935V11.9085C16.8327 14.8502 14.941 16.8327 12.116 16.8327H4.89102C2.06602 16.8327 0.166016 14.8502 0.166016 11.9085V5.09935C0.166016 2.14935 2.06602 0.166016 4.89102 0.166016H12.116ZM11.0077 5.97518C10.7243 5.69102 10.266 5.69102 9.97435 5.97518L8.49935 7.45768L7.01602 5.97518C6.72435 5.69102 6.26602 5.69102 5.98268 5.97518C5.69935 6.25852 5.69935 6.72518 5.98268 7.00768L7.46602 8.49185L5.98268 9.96685C5.69935 10.2585 5.69935 10.7168 5.98268 10.9993C6.12435 11.141 6.31602 11.2168 6.49935 11.2168C6.69102 11.2168 6.87435 11.141 7.01602 10.9993L8.49935 9.52518L9.98268 10.9993C10.1243 11.1502 10.3077 11.2168 10.491 11.2168C10.6827 11.2168 10.866 11.141 11.0077 10.9993C11.291 10.7168 11.291 10.2585 11.0077 9.97518L9.52435 8.49185L11.0077 7.00768C11.291 6.72518 11.291 6.25852 11.0077 5.97518Z" fill="#42B2E9"/>
</svg>
