<svg width="19" height="18" viewBox="0 0 19 18" fill="none" xmlns="http://www.w3.org/2000/svg">
<path d="M9.49988 17.9375C14.4357 17.9375 18.4374 13.9358 18.4374 9C18.4374 4.06418 14.4357 0.0625 9.49988 0.0625C4.56406 0.0625 0.562378 4.06418 0.562378 9C0.562378 13.9358 4.56406 17.9375 9.49988 17.9375ZM5.57425 8.8002C5.63784 8.73609 5.71344 8.68513 5.79672 8.65024C5.88 8.61534 5.96935 8.5972 6.05964 8.59684C6.14994 8.59648 6.23942 8.61391 6.32298 8.64814C6.40654 8.68237 6.48254 8.73273 6.54664 8.79633L8.81238 11.0445V5.30469C8.81238 5.12235 8.88481 4.94748 9.01374 4.81855C9.14267 4.68962 9.31754 4.61719 9.49988 4.61719C9.68222 4.61719 9.85708 4.68962 9.98602 4.81855C10.1149 4.94748 10.1874 5.12235 10.1874 5.30469V11.0445L12.4531 8.79633C12.5827 8.6679 12.758 8.5962 12.9404 8.597C13.1229 8.59781 13.2975 8.67105 13.4259 8.80063C13.5544 8.9302 13.6261 9.10548 13.6253 9.28792C13.6245 9.47036 13.5512 9.64501 13.4216 9.77344L9.98414 13.1847C9.85536 13.3125 9.6813 13.3842 9.49988 13.3842C9.31846 13.3842 9.1444 13.3125 9.01562 13.1847L5.57812 9.77344C5.51388 9.70984 5.46282 9.63419 5.42785 9.55082C5.39288 9.46746 5.37469 9.37802 5.37434 9.28762C5.37398 9.19722 5.39145 9.10764 5.42575 9.024C5.46006 8.94036 5.51052 8.86431 5.57425 8.8002Z" fill="#242424"/>
</svg>
