<svg width="18" height="17" viewBox="0 0 18 17" fill="#3F566B" xmlns="http://www.w3.org/2000/svg">
<path d="M12.6077 0.166748C15.4327 0.166748 17.3327 2.15008 17.3327 5.09175V11.9001C17.3327 14.8501 15.4327 16.8334 12.6077 16.8334H5.38268C2.55852 16.8334 0.666016 14.8501 0.666016 11.9001V5.09175C0.666016 2.15008 2.55852 0.166748 5.38268 0.166748H12.6077ZM8.99935 4.47508C8.64935 4.47508 8.37435 4.75008 8.37435 5.10008V10.3917L6.31602 8.32508C6.19935 8.20842 6.03268 8.14175 5.87435 8.14175C5.71685 8.14175 5.55768 8.20842 5.43268 8.32508C5.19102 8.56675 5.19102 8.96675 5.43268 9.20842L8.55768 12.3501C8.79102 12.5834 9.20768 12.5834 9.44102 12.3501L12.566 9.20842C12.8077 8.96675 12.8077 8.56675 12.566 8.32508C12.316 8.08342 11.9243 8.08342 11.6743 8.32508L9.62435 10.3917V5.10008C9.62435 4.75008 9.34102 4.47508 8.99935 4.47508Z" fill="#3F566B"/>
</svg>
