<svg width="17" height="18" viewBox="0 0 17 18" fill="none" xmlns="http://www.w3.org/2000/svg">
<path d="M11.8998 0.666992C14.8498 0.666992 16.8332 2.56699 16.8332 5.39199V12.617C16.8332 15.4412 14.8498 17.3337 11.8998 17.3337H5.0915C2.14984 17.3337 0.166504 15.4412 0.166504 12.617V5.39199C0.166504 2.56699 2.14984 0.666992 5.0915 0.666992H11.8998ZM9.20817 5.43366C8.9665 5.19199 8.5665 5.19199 8.32484 5.43366C8.08317 5.68366 8.08317 6.07533 8.32484 6.32533L10.3915 8.37533H5.09984C4.74984 8.37533 4.47484 8.65866 4.47484 9.00033C4.47484 9.35033 4.74984 9.62533 5.09984 9.62533H10.3915L8.32484 11.6837C8.20817 11.8003 8.1415 11.967 8.1415 12.1253C8.1415 12.2828 8.20817 12.442 8.32484 12.567C8.5665 12.8087 8.9665 12.8087 9.20817 12.567L12.3498 9.44199C12.5832 9.20866 12.5832 8.79199 12.3498 8.55866L9.20817 5.43366Z" fill="black"/>
</svg>
