<svg width="16" height="15" viewBox="0 0 16 15" fill="none" xmlns="http://www.w3.org/2000/svg">
<path d="M11.06 0C13.715 0 15.5 1.71 15.5 4.2525V10.755C15.5 13.2967 13.715 15 11.06 15H4.9325C2.285 15 0.5 13.2967 0.5 10.755V4.2525C0.5 1.71 2.285 0 4.9325 0H11.06ZM8.6375 4.29C8.42 4.0725 8.06 4.0725 7.8425 4.29C7.625 4.515 7.625 4.8675 7.8425 5.0925L9.7025 6.9375H4.94C4.625 6.9375 4.3775 7.1925 4.3775 7.5C4.3775 7.815 4.625 8.0625 4.94 8.0625H9.7025L7.8425 9.915C7.7375 10.02 7.6775 10.17 7.6775 10.3125C7.6775 10.4542 7.7375 10.5975 7.8425 10.71C8.06 10.9275 8.42 10.9275 8.6375 10.71L11.465 7.8975C11.675 7.6875 11.675 7.3125 11.465 7.1025L8.6375 4.29Z" fill="#42B2E9"/>
</svg>
