<svg width="22" height="22" viewBox="0 0 22 22" fill="none" xmlns="http://www.w3.org/2000/svg">
<path d="M6.25806 19.9364H15.7447C16.5955 19.9364 17.2722 19.2364 17.1807 18.4299C16.5899 13.2333 13.0639 13.3192 13.0639 10.9989C13.0639 8.67859 16.635 8.8075 17.1803 3.56789C17.2662 2.76093 16.5955 2.0614 15.7447 2.0614H6.25806C5.40727 2.0614 4.73825 2.76093 4.82247 3.56789C5.36774 8.8075 8.93888 8.63562 8.93888 10.9989C8.93888 13.3622 5.41286 13.2333 4.82247 18.4299C4.73052 19.2364 5.40727 19.9364 6.25806 19.9364Z" stroke="#3F566B" stroke-width="1.00189" stroke-linecap="round" stroke-linejoin="round"/>
<path d="M14.7512 18.5626H7.26736C6.59705 18.5626 6.40799 17.7892 6.87806 17.3097C8.01588 16.1564 10.3126 15.3305 10.3126 14.0079V9.62512C10.3126 8.77219 8.67974 8.12122 7.66955 6.73762C7.50283 6.50946 7.51959 6.18762 7.94326 6.18762H14.0762C14.4376 6.18762 14.5158 6.50688 14.3512 6.73547C13.3556 8.12122 11.6876 8.7679 11.6876 9.62512V14.0079C11.6876 15.3198 14.0813 16.0275 15.1422 17.3109C15.5698 17.8283 15.4203 18.5626 14.7512 18.5626Z" fill="#3F566B"/>
</svg>
