<svg width="20" height="20" viewBox="0 0 20 20" fill="none" xmlns="http://www.w3.org/2000/svg">
<path d="M18.8993 1.26783C18.7513 1.23266 18.5957 1.25164 18.4606 1.32135L17.5001 1.80103L16.5313 1.31666C16.4445 1.27327 16.3488 1.25068 16.2518 1.25068C16.1548 1.25068 16.0591 1.27327 15.9723 1.31666L14.9915 1.80142L14.0235 1.31666C13.9365 1.27295 13.8404 1.25019 13.743 1.25019C13.6456 1.25019 13.5496 1.27295 13.4626 1.31666L12.5001 1.79986L11.545 1.31783C11.4582 1.27383 11.3623 1.2507 11.265 1.25029C11.1677 1.24989 11.0716 1.27221 10.9844 1.31549L10.0001 1.80182L9.0313 1.31627C8.94437 1.2729 8.84856 1.25033 8.75142 1.25033C8.65427 1.25033 8.55846 1.2729 8.47153 1.31627L7.50005 1.80103L6.52974 1.31627C6.40465 1.25356 6.26214 1.23465 6.12502 1.26256C5.98791 1.29046 5.86412 1.36357 5.77349 1.47017C5.6758 1.5866 5.62313 1.73422 5.62505 1.88619V11.2503L5.627 11.2522H13.1251C13.4566 11.2522 13.7745 11.3839 14.0089 11.6183C14.2434 11.8527 14.375 12.1707 14.375 12.5022V16.5628C14.375 17.771 15.6668 18.7503 16.8751 18.7503H17.3438C17.8825 18.7503 18.3992 18.5362 18.7801 18.1553C19.161 17.7744 19.375 17.2577 19.375 16.719V1.87525C19.3752 1.73537 19.3283 1.59949 19.2421 1.48936C19.1558 1.37923 19.0351 1.30123 18.8993 1.26783ZM16.2501 9.37525H11.2696C10.9321 9.37525 10.6407 9.11588 10.6258 8.77838C10.622 8.69403 10.6354 8.60979 10.665 8.53074C10.6947 8.45169 10.74 8.37946 10.7984 8.31842C10.8567 8.25739 10.9268 8.2088 11.0044 8.1756C11.0821 8.1424 11.1656 8.12527 11.2501 8.12525H16.2305C16.568 8.12525 16.8594 8.38463 16.8743 8.72213C16.8781 8.80647 16.8647 8.89072 16.8351 8.96977C16.8054 9.04882 16.7601 9.12105 16.7017 9.18208C16.6434 9.24312 16.5733 9.29171 16.4957 9.32491C16.418 9.35811 16.3345 9.37523 16.2501 9.37525ZM16.2501 6.25025H8.76958C8.43208 6.25025 8.14068 5.99088 8.12583 5.65338C8.12203 5.56903 8.13536 5.48479 8.16502 5.40574C8.19467 5.32669 8.24004 5.25446 8.29837 5.19342C8.35671 5.13239 8.42681 5.0838 8.50444 5.0506C8.58207 5.0174 8.66562 5.00027 8.75005 5.00025H16.2305C16.568 5.00025 16.8594 5.25963 16.8743 5.59713C16.8781 5.68147 16.8647 5.76572 16.8351 5.84477C16.8054 5.92382 16.7601 5.99605 16.7017 6.05708C16.6434 6.11812 16.5733 6.16671 16.4957 6.19991C16.418 6.23311 16.3345 6.25023 16.2501 6.25025Z" fill="white"/>
<path d="M13.123 16.563V13.1255C13.123 12.9597 13.0572 12.8008 12.94 12.6835C12.8228 12.5663 12.6638 12.5005 12.498 12.5005H1.87305C1.54151 12.5015 1.22387 12.6338 0.989614 12.8684C0.755361 13.1031 0.623562 13.4209 0.623047 13.7524C0.623047 15.7271 0.848828 16.5481 1.18789 17.1731C1.76328 18.2345 2.80508 18.7505 4.37305 18.7505H13.9699C14.0007 18.7505 14.0309 18.7414 14.0566 18.7244C14.0822 18.7073 14.1023 18.683 14.1142 18.6546C14.1261 18.6261 14.1293 18.5948 14.1235 18.5645C14.1176 18.5343 14.1029 18.5064 14.0813 18.4845C13.7117 18.1138 13.123 17.6177 13.123 16.563Z" fill="white"/>
</svg>
