<svg width="18" height="18" viewBox="0 0 18 18" fill="none" xmlns="http://www.w3.org/2000/svg">
<path d="M8.99811 0.0631104C4.07002 0.0631104 0.0606079 4.07295 0.0606079 9.00061C0.0606079 13.936 4.06272 17.9381 8.99811 17.9381C13.9262 17.9381 17.9356 13.9287 17.9356 9.00061C17.9356 4.06479 13.9339 0.0631104 8.99811 0.0631104ZM8.99811 13.5123C7.92688 13.5123 6.89953 13.0868 6.14206 12.3293C5.38459 11.5718 4.95905 10.5445 4.95905 9.47327C4.95905 8.40204 5.38459 7.37469 6.14206 6.61722C6.89953 5.85975 7.92688 5.43421 8.99811 5.43421H9.17901L8.57272 4.82835C8.4599 4.71552 8.39652 4.56251 8.39652 4.40295C8.39652 4.2434 8.4599 4.09039 8.57272 3.97756C8.68554 3.86474 8.83856 3.80136 8.99811 3.80136C9.15766 3.80136 9.31068 3.86474 9.4235 3.97756L11.1423 5.69631C11.1981 5.75218 11.2424 5.81849 11.2727 5.89148C11.3029 5.96447 11.3185 6.0427 11.3185 6.12171C11.3185 6.20071 11.3029 6.27894 11.2727 6.35193C11.2424 6.42492 11.1981 6.49123 11.1423 6.5471L9.4235 8.26585C9.31068 8.37867 9.15766 8.44205 8.99811 8.44205C8.83856 8.44205 8.68554 8.37867 8.57272 8.26585C8.4599 8.15303 8.39652 8.00001 8.39652 7.84046C8.39652 7.6809 8.4599 7.52789 8.57272 7.41507L9.34616 6.64163C9.24389 6.63733 9.12702 6.63733 8.99811 6.63733C8.43721 6.63733 7.88891 6.80365 7.42255 7.11527C6.95618 7.42689 6.59269 7.8698 6.37804 8.388C6.1634 8.9062 6.10724 9.47641 6.21666 10.0265C6.32609 10.5766 6.59619 11.082 6.9928 11.4786C7.38941 11.8752 7.89473 12.1453 8.44485 12.2547C8.99496 12.3641 9.56518 12.308 10.0834 12.0933C10.6016 11.8787 11.0445 11.5152 11.3561 11.0488C11.6677 10.5825 11.834 10.0342 11.834 9.47327C11.834 9.31372 11.8974 9.16071 12.0102 9.0479C12.1231 8.93508 12.2761 8.87171 12.4356 8.87171C12.5952 8.87171 12.7482 8.93508 12.861 9.0479C12.9738 9.16071 13.0372 9.31372 13.0372 9.47327C13.0359 10.5441 12.61 11.5707 11.8528 12.3279C11.0956 13.0851 10.069 13.5111 8.99811 13.5123V13.5123Z" fill="#3F566B"/>
</svg>
