<svg width="16" height="12" viewBox="0 0 16 12" fill="none" xmlns="http://www.w3.org/2000/svg">
<path d="M14.1712 5.30734C14.4872 5.72067 14.4872 6.27867 14.1712 6.69134C13.1758 7.99067 10.7878 10.666 7.99984 10.666C5.21184 10.666 2.82384 7.99067 1.82851 6.69134C1.67477 6.49343 1.59131 6.24995 1.59131 5.99934C1.59131 5.74873 1.67477 5.50525 1.82851 5.30734C2.82384 4.00801 5.21184 1.33267 7.99984 1.33267C10.7878 1.33267 13.1758 4.00801 14.1712 5.30734V5.30734Z" stroke="#D0D5DD" stroke-width="1.33333" stroke-linecap="round" stroke-linejoin="round"/>
<path d="M8 7.99933C9.10457 7.99933 10 7.1039 10 5.99933C10 4.89476 9.10457 3.99933 8 3.99933C6.89543 3.99933 6 4.89476 6 5.99933C6 7.1039 6.89543 7.99933 8 7.99933Z" stroke="#D0D5DD" stroke-width="1.33333" stroke-linecap="round" stroke-linejoin="round"/>
</svg>
