<svg width="24" height="24" viewBox="0 0 24 24" fill="none" xmlns="http://www.w3.org/2000/svg">
<path d="M7.49988 11.2511H14.4078L11.4078 8.25109L12.4686 7.19031L17.2794 12.0011L12.4686 16.8119L11.4078 15.7511L14.4078 12.7511H7.49988L7.49988 19.6886C7.49988 19.8378 7.55914 19.9809 7.66463 20.0863C7.77012 20.1918 7.91319 20.2511 8.06238 20.2511H21.9374C22.0866 20.2511 22.2296 20.1918 22.3351 20.0863C22.4406 19.9809 22.4999 19.8378 22.4999 19.6886V4.31359C22.4999 4.16441 22.4406 4.02133 22.3351 3.91585C22.2296 3.81036 22.0866 3.75109 21.9374 3.75109H8.06238C7.91319 3.75109 7.77012 3.81036 7.66463 3.91585C7.55914 4.02133 7.49988 4.16441 7.49988 4.31359V11.2511Z" fill="#42B2E9"/>
<path d="M1.50031 11.2486V12.7488H7.50116V11.2486H1.50031Z" fill="#42B2E9"/>
</svg>
