<svg width="19" height="20" viewBox="0 0 19 20" fill="none" xmlns="http://www.w3.org/2000/svg">
<path d="M13.7717 0.834839C16.8884 0.834839 18.6667 2.59484 18.6667 5.72067V14.2823C18.6667 17.3898 16.8975 19.1682 13.7809 19.1682H5.21921C2.09337 19.1682 0.333374 17.3898 0.333374 14.2823V5.72067C0.333374 2.59484 2.09337 0.834839 5.21921 0.834839H13.7717ZM9.49087 5.88567C9.06921 5.88567 8.73004 6.22484 8.73004 6.6465V9.23151H6.13587C5.93421 9.23151 5.74171 9.314 5.59504 9.4515C5.45754 9.59817 5.37504 9.78975 5.37504 9.99234C5.37504 10.414 5.71421 10.7532 6.13587 10.7623H8.73004V13.3565C8.73004 13.7782 9.06921 14.1173 9.49087 14.1173C9.91254 14.1173 10.2517 13.7782 10.2517 13.3565V10.7623H12.855C13.2767 10.7532 13.6159 10.414 13.6159 9.99234C13.6159 9.57067 13.2767 9.23151 12.855 9.23151H10.2517V6.6465C10.2517 6.22484 9.91254 5.88567 9.49087 5.88567Z" fill="#242424"/>
</svg>
