<svg width="20" height="18" viewBox="0 0 20 18" fill="none" xmlns="http://www.w3.org/2000/svg">
<path d="M7.29139 17.125H6.25155C6.14707 17.125 6.04426 17.0987 5.95253 17.0487C5.8608 16.9987 5.78308 16.9265 5.72646 16.8387C5.66985 16.7508 5.63615 16.6502 5.62846 16.546C5.62076 16.4418 5.63931 16.3374 5.68241 16.2422L8.20038 10.6855L4.41952 10.6016L3.04061 12.2723C2.77772 12.6027 2.56796 12.75 2.0328 12.75H1.3328C1.22197 12.7536 1.11191 12.7304 1.01195 12.6824C0.911996 12.6344 0.825084 12.563 0.758583 12.4742C0.665614 12.3488 0.574208 12.1363 0.66327 11.8332L1.43749 9.05977C1.44335 9.03906 1.45038 9.01836 1.45819 8.99805C1.45858 8.99611 1.45858 8.99412 1.45819 8.99219C1.45013 8.97189 1.44321 8.95116 1.43749 8.93008L0.662489 6.13906C0.578505 5.8418 0.670302 5.63398 0.762489 5.51172C0.824394 5.42958 0.904708 5.36311 0.996975 5.31765C1.08924 5.2722 1.19089 5.24903 1.29374 5.25H2.0328C2.43241 5.25 2.8203 5.4293 3.04843 5.71875L4.39882 7.36133L8.20038 7.30508L5.68319 1.7582C5.64003 1.66307 5.62141 1.55863 5.62903 1.45444C5.63664 1.35025 5.67025 1.24963 5.72679 1.16178C5.78332 1.07393 5.86097 1.00165 5.95264 0.951554C6.04432 0.901456 6.14708 0.875136 6.25155 0.875H7.30272C7.44937 0.877947 7.59348 0.913891 7.72433 0.980164C7.85519 1.04644 7.96943 1.14134 8.05858 1.25781L12.9433 7.19531L15.2 7.13594C15.3652 7.12695 15.823 7.12383 15.9289 7.12383C18.0875 7.125 19.3766 7.82578 19.3766 9C19.3766 9.36953 19.2289 10.0547 18.241 10.4906C17.6578 10.7484 16.8797 10.8789 15.9281 10.8789C15.8234 10.8789 15.3668 10.8758 15.1992 10.8668L12.943 10.8066L8.04608 16.7441C7.95686 16.8601 7.84271 16.9545 7.71208 17.0205C7.58146 17.0864 7.43769 17.1221 7.29139 17.125V17.125Z" fill="white"/>
</svg>
