<svg width="19" height="20" viewBox="0 0 19 20" fill="none" xmlns="http://www.w3.org/2000/svg">
<path d="M5.76008 0.833984C2.51508 0.833984 0.333416 2.92398 0.333416 6.03148V13.979C0.333416 17.0856 2.51508 19.1673 5.76008 19.1673H13.2492C16.4851 19.1673 18.6667 17.0856 18.6667 13.979V6.03148C18.6667 2.92398 16.4851 0.833984 13.2492 0.833984H5.76008ZM8.72091 6.07732C8.98675 5.81148 9.42675 5.81148 9.69258 6.07732C9.95842 6.35232 9.95842 6.78315 9.69258 7.05815L7.41925 9.31315H13.2401C13.6251 9.31315 13.9276 9.62482 13.9276 10.0007C13.9276 10.3857 13.6251 10.6882 13.2401 10.6882H7.41925L9.69258 12.9523C9.82092 13.0807 9.89425 13.264 9.89425 13.4382C9.89425 13.6114 9.82092 13.7865 9.69258 13.924C9.42675 14.1898 8.98675 14.1898 8.72091 13.924L5.26508 10.4865C5.00842 10.2298 5.00842 9.77148 5.26508 9.51482L8.72091 6.07732Z" fill="#242424"/>
</svg>
