<svg width="20" height="20" viewBox="0 0 20 20" fill="none" xmlns="http://www.w3.org/2000/svg">
<path d="M10.0263 0.24939C4.65017 0.24939 0.27626 4.6233 0.27626 9.99939C0.27626 15.3755 4.65017 19.7494 10.0263 19.7494C15.4024 19.7494 19.7763 15.3755 19.7763 9.99939C19.7763 4.6233 15.4024 0.24939 10.0263 0.24939ZM10.0263 15.9994C9.04657 15.9994 8.26751 15.5841 8.16298 14.7066C8.16021 14.6804 8.163 14.6538 8.17118 14.6288C8.17935 14.6037 8.19273 14.5806 8.21042 14.5611C8.22812 14.5415 8.24974 14.5259 8.27387 14.5153C8.29801 14.5047 8.32411 14.4992 8.35048 14.4994H11.6997C11.7263 14.4992 11.7527 14.5047 11.7771 14.5155C11.8014 14.5263 11.8232 14.5421 11.8409 14.562C11.8587 14.5819 11.872 14.6053 11.8799 14.6307C11.8879 14.6561 11.8904 14.6829 11.8872 14.7094C11.7677 15.5705 10.9956 15.9994 10.0263 15.9994ZM14.62 13.7494H5.43251C4.87751 13.7494 4.58876 13.0463 4.90798 12.6713C5.67345 11.7647 6.21439 11.3836 6.21439 8.88377C6.21439 6.59298 7.42095 5.78017 8.41751 5.38361C8.48609 5.35503 8.54793 5.3124 8.59903 5.25847C8.65014 5.20454 8.68938 5.1405 8.71423 5.07048C8.8872 4.49627 9.37657 3.99939 10.0263 3.99939C10.6759 3.99939 11.1644 4.49627 11.3388 5.07095C11.3638 5.14096 11.4031 5.20497 11.4543 5.25889C11.5055 5.31281 11.5673 5.35545 11.6359 5.38408C12.6302 5.7797 13.8391 6.59392 13.8391 8.88424C13.8391 11.3841 14.3795 11.7652 15.145 12.6717C15.461 13.0463 15.1717 13.7494 14.62 13.7494Z" fill="white"/>
</svg>
