<svg width="16" height="16" viewBox="0 0 16 16" fill="none" xmlns="http://www.w3.org/2000/svg">
<g clip-path="url(#clip0_1_422)">
<path d="M7.28671 11.2532C7.23451 11.2535 7.18261 11.2453 7.13296 11.2292C7.0437 11.2003 6.96435 11.1469 6.90401 11.075C6.84366 11.0032 6.80475 10.9158 6.79171 10.8229C6.72452 10.3542 6.16827 9.80855 5.64734 9.70262C5.56131 9.68483 5.4815 9.64469 5.41592 9.58624C5.35034 9.52779 5.30132 9.4531 5.27379 9.36968C5.24626 9.28627 5.24119 9.19707 5.25909 9.11107C5.277 9.02507 5.31724 8.9453 5.37577 8.8798L11.9723 1.53293C11.9783 1.52605 11.9845 1.51949 11.9908 1.51324C12.3222 1.18278 12.7711 0.997208 13.2391 0.997208C13.7071 0.997208 14.156 1.18278 14.4873 1.51324V1.51324C14.8177 1.84379 15.0035 2.29179 15.0041 2.75909C15.0048 3.2264 14.8202 3.67491 14.4908 4.00637L7.64702 11.1001C7.60036 11.1486 7.54439 11.1871 7.48248 11.2134C7.42057 11.2397 7.35398 11.2533 7.28671 11.2532V11.2532Z" fill="#42B2E9"/>
<path d="M3.74635 15.0044C2.74183 15.0044 1.70074 14.4765 1.0944 13.6605C1.03914 13.5861 1.00564 13.4978 0.997651 13.4054C0.989659 13.3131 1.00749 13.2203 1.04914 13.1375C1.0908 13.0548 1.15465 12.9852 1.23356 12.9365C1.31247 12.8879 1.40334 12.8622 1.49602 12.8622C1.66292 12.8622 2.12111 12.71 2.12111 12.2193C2.12111 10.9982 3.1025 10.0046 4.30893 10.0046C5.51535 10.0046 6.49674 10.9982 6.49674 12.2193C6.49674 13.7545 5.26281 15.0044 3.74635 15.0044Z" fill="#42B2E9"/>
</g>
<defs>
<clipPath id="clip0_1_422">
<rect width="16" height="16" fill="white"/>
</clipPath>
</defs>
</svg>
