<svg width="18" height="18" viewBox="0 0 18 18" fill="none" xmlns="http://www.w3.org/2000/svg">
<path d="M16.9686 5.24976H13.5311V4.78101C13.5302 3.59894 13.0679 2.46392 12.2427 1.6176C11.4174 0.771271 10.2944 0.280496 9.11277 0.249756C9.07371 0.249756 9.03777 0.249756 8.99988 0.249756C8.96199 0.249756 8.92449 0.249756 8.88699 0.249756C7.70532 0.280496 6.58232 0.771271 5.75708 1.6176C4.93184 2.46392 4.46955 3.59894 4.46863 4.78101V5.24976H1.03113C0.989688 5.24976 0.949945 5.26622 0.920643 5.29552C0.89134 5.32482 0.874878 5.36457 0.874878 5.40601V17.1248C0.874878 17.2905 0.940726 17.4495 1.05794 17.5667C1.17515 17.6839 1.33412 17.7498 1.49988 17.7498H16.4999C16.6656 17.7498 16.8246 17.6839 16.9418 17.5667C17.059 17.4495 17.1249 17.2905 17.1249 17.1248V5.40601C17.1249 5.36457 17.1084 5.32482 17.0791 5.29552C17.0498 5.26622 17.0101 5.24976 16.9686 5.24976ZM6.03113 4.82007C6.03113 3.18569 7.33621 1.82944 8.97058 1.81226C9.36279 1.8088 9.7518 1.88302 10.1152 2.03063C10.4786 2.17823 10.8091 2.39631 11.0878 2.67229C11.3665 2.94827 11.5879 3.27668 11.739 3.6386C11.8902 4.00052 11.9682 4.38878 11.9686 4.78101V5.24976H6.03113V4.82007ZM13.3749 8.37476C13.3749 9.53508 12.9139 10.6479 12.0935 11.4683C11.273 12.2888 10.1602 12.7498 8.99988 12.7498C7.83956 12.7498 6.72676 12.2888 5.90629 11.4683C5.08582 10.6479 4.62488 9.53508 4.62488 8.37476V7.12476H5.87488V8.37476C5.87488 9.20356 6.20412 9.99841 6.79017 10.5845C7.37622 11.1705 8.17108 11.4998 8.99988 11.4998C9.82868 11.4998 10.6235 11.1705 11.2096 10.5845C11.7956 9.99841 12.1249 9.20356 12.1249 8.37476V7.12476H13.3749V8.37476Z" fill="#3F566B"/>
</svg>
