<svg width="17" height="17" viewBox="0 0 17 17" fill="none" xmlns="http://www.w3.org/2000/svg">
<path d="M15.003 4.00134C15.003 3.47079 14.7923 2.96197 14.4171 2.58682C14.042 2.21166 13.5332 2.0009 13.0026 2.0009H12.5025V1.51486C12.5025 1.24574 12.2956 1.01475 12.0265 1.00131C11.9588 0.998054 11.8913 1.00856 11.8278 1.03219C11.7644 1.05582 11.7064 1.09208 11.6574 1.13879C11.6084 1.18549 11.5694 1.24165 11.5427 1.30388C11.516 1.36611 11.5023 1.4331 11.5023 1.5008V2.0009H4.50076V1.51486C4.50076 1.24574 4.29384 1.01475 4.02472 1.00131C3.9571 0.998054 3.88952 1.00856 3.82608 1.03219C3.76265 1.05582 3.70466 1.09208 3.65565 1.13879C3.60664 1.18549 3.56763 1.24165 3.54096 1.30388C3.5143 1.36611 3.50055 1.4331 3.50054 1.5008V2.0009H3.00044C2.46989 2.0009 1.96107 2.21166 1.58591 2.58682C1.21076 2.96197 1 3.47079 1 4.00134V4.37642C1 4.40958 1.01317 4.44138 1.03662 4.46483C1.06007 4.48828 1.09187 4.50145 1.12503 4.50145H14.878C14.9112 4.50145 14.943 4.48828 14.9664 4.46483C14.9899 4.44138 15.003 4.40958 15.003 4.37642V4.00134Z" fill="#42B2E9"/>
<path d="M1 13.0035C1 13.534 1.21076 14.0428 1.58591 14.418C1.96107 14.7931 2.46989 15.0039 3.00044 15.0039H13.0026C13.5332 15.0039 14.042 14.7931 14.4171 14.418C14.7923 14.0428 15.003 13.534 15.003 13.0035V5.5956C15.003 5.57073 14.9932 5.54688 14.9756 5.5293C14.958 5.51171 14.9341 5.50183 14.9093 5.50183H1.09377C1.0689 5.50183 1.04505 5.51171 1.02746 5.5293C1.00988 5.54688 1 5.57073 1 5.5956V13.0035ZM11.7523 6.50205C11.9007 6.50205 12.0457 6.54605 12.1691 6.62847C12.2925 6.7109 12.3886 6.82806 12.4454 6.96514C12.5022 7.10221 12.517 7.25305 12.4881 7.39856C12.4591 7.54408 12.3877 7.67775 12.2828 7.78266C12.1779 7.88757 12.0442 7.95902 11.8987 7.98796C11.7532 8.01691 11.6023 8.00205 11.4653 7.94527C11.3282 7.8885 11.211 7.79235 11.1286 7.66898C11.0462 7.54562 11.0022 7.40058 11.0022 7.25221C11.0022 7.05326 11.0812 6.86245 11.2219 6.72177C11.3626 6.58108 11.5534 6.50205 11.7523 6.50205ZM11.7523 9.0026C11.9007 9.0026 12.0457 9.04659 12.1691 9.12902C12.2925 9.21145 12.3886 9.32861 12.4454 9.46568C12.5022 9.60276 12.517 9.75359 12.4881 9.89911C12.4591 10.0446 12.3877 10.1783 12.2828 10.2832C12.1779 10.3881 12.0442 10.4596 11.8987 10.4885C11.7532 10.5175 11.6023 10.5026 11.4653 10.4458C11.3282 10.389 11.211 10.2929 11.1286 10.1695C11.0462 10.0462 11.0022 9.90113 11.0022 9.75276C11.0022 9.5538 11.0812 9.363 11.2219 9.22231C11.3626 9.08163 11.5534 9.0026 11.7523 9.0026ZM9.2518 6.50205C9.40016 6.50205 9.5452 6.54605 9.66856 6.62847C9.79193 6.7109 9.88808 6.82806 9.94486 6.96514C10.0016 7.10221 10.0165 7.25305 9.98754 7.39856C9.9586 7.54408 9.88715 7.67775 9.78224 7.78266C9.67733 7.88757 9.54366 7.95902 9.39815 7.98796C9.25263 8.01691 9.1018 8.00205 8.96472 7.94527C8.82765 7.8885 8.71049 7.79235 8.62806 7.66898C8.54563 7.54562 8.50163 7.40058 8.50163 7.25221C8.50163 7.05326 8.58067 6.86245 8.72135 6.72177C8.86203 6.58108 9.05284 6.50205 9.2518 6.50205ZM9.2518 9.0026C9.40016 9.0026 9.5452 9.04659 9.66856 9.12902C9.79193 9.21145 9.88808 9.32861 9.94486 9.46568C10.0016 9.60276 10.0165 9.75359 9.98754 9.89911C9.9586 10.0446 9.88715 10.1783 9.78224 10.2832C9.67733 10.3881 9.54366 10.4596 9.39815 10.4885C9.25263 10.5175 9.1018 10.5026 8.96472 10.4458C8.82765 10.389 8.71049 10.2929 8.62806 10.1695C8.54563 10.0462 8.50163 9.90113 8.50163 9.75276C8.50163 9.5538 8.58067 9.363 8.72135 9.22231C8.86203 9.08163 9.05284 9.0026 9.2518 9.0026ZM9.2518 11.5031C9.40016 11.5031 9.5452 11.5471 9.66856 11.6296C9.79193 11.712 9.88808 11.8292 9.94486 11.9662C10.0016 12.1033 10.0165 12.2541 9.98754 12.3997C9.9586 12.5452 9.88715 12.6788 9.78224 12.7838C9.67733 12.8887 9.54366 12.9601 9.39815 12.9891C9.25263 13.018 9.1018 13.0031 8.96472 12.9464C8.82765 12.8896 8.71049 12.7934 8.62806 12.6701C8.54563 12.5467 8.50163 12.4017 8.50163 12.2533C8.50163 12.0543 8.58067 11.8635 8.72135 11.7229C8.86203 11.5822 9.05284 11.5031 9.2518 11.5031ZM6.75125 9.0026C6.89962 9.0026 7.04466 9.04659 7.16802 9.12902C7.29138 9.21145 7.38753 9.32861 7.44431 9.46568C7.50109 9.60276 7.51595 9.75359 7.487 9.89911C7.45806 10.0446 7.38661 10.1783 7.2817 10.2832C7.17679 10.3881 7.04312 10.4596 6.8976 10.4885C6.75208 10.5175 6.60125 10.5026 6.46418 10.4458C6.3271 10.389 6.20994 10.2929 6.12751 10.1695C6.04508 10.0462 6.00109 9.90113 6.00109 9.75276C6.00109 9.5538 6.08012 9.363 6.22081 9.22231C6.36149 9.08163 6.5523 9.0026 6.75125 9.0026ZM6.75125 11.5031C6.89962 11.5031 7.04466 11.5471 7.16802 11.6296C7.29138 11.712 7.38753 11.8292 7.44431 11.9662C7.50109 12.1033 7.51595 12.2541 7.487 12.3997C7.45806 12.5452 7.38661 12.6788 7.2817 12.7838C7.17679 12.8887 7.04312 12.9601 6.8976 12.9891C6.75208 13.018 6.60125 13.0031 6.46418 12.9464C6.3271 12.8896 6.20994 12.7934 6.12751 12.6701C6.04508 12.5467 6.00109 12.4017 6.00109 12.2533C6.00109 12.0543 6.08012 11.8635 6.22081 11.7229C6.36149 11.5822 6.5523 11.5031 6.75125 11.5031ZM4.25071 9.0026C4.39908 9.0026 4.54411 9.04659 4.66748 9.12902C4.79084 9.21145 4.88699 9.32861 4.94377 9.46568C5.00055 9.60276 5.0154 9.75359 4.98646 9.89911C4.95751 10.0446 4.88607 10.1783 4.78115 10.2832C4.67624 10.3881 4.54257 10.4596 4.39706 10.4885C4.25154 10.5175 4.10071 10.5026 3.96363 10.4458C3.82656 10.389 3.7094 10.2929 3.62697 10.1695C3.54454 10.0462 3.50054 9.90113 3.50054 9.75276C3.50054 9.5538 3.57958 9.363 3.72026 9.22231C3.86094 9.08163 4.05175 9.0026 4.25071 9.0026ZM4.25071 11.5031C4.39908 11.5031 4.54411 11.5471 4.66748 11.6296C4.79084 11.712 4.88699 11.8292 4.94377 11.9662C5.00055 12.1033 5.0154 12.2541 4.98646 12.3997C4.95751 12.5452 4.88607 12.6788 4.78115 12.7838C4.67624 12.8887 4.54257 12.9601 4.39706 12.9891C4.25154 13.018 4.10071 13.0031 3.96363 12.9464C3.82656 12.8896 3.7094 12.7934 3.62697 12.6701C3.54454 12.5467 3.50054 12.4017 3.50054 12.2533C3.50054 12.0543 3.57958 11.8635 3.72026 11.7229C3.86094 11.5822 4.05175 11.5031 4.25071 11.5031Z" fill="#42B2E9"/>
</svg>
