<svg width="25" height="25" viewBox="0 0 25 25" fill="none" xmlns="http://www.w3.org/2000/svg">
<path d="M24.0714 18.1206L18.9595 15.4855C18.2415 15.1131 17.3512 15.3136 16.863 15.9438L14.9963 18.3498C13.1583 17.3759 11.7798 16.4307 10.1715 14.8267C8.4484 13.1081 7.52941 11.7046 6.61041 9.92874L8.99406 8.06695C9.62588 7.58002 9.8269 6.6921 9.45356 5.97602L6.81145 0.90622C6.35195 0.018289 5.2032 -0.268144 4.37036 0.276072L1.12512 2.45294C0.378437 2.96852 -0.0523337 3.8278 0.00510375 4.71573C0.0625412 5.6323 0.177406 6.80667 0.407156 7.60867C1.35487 11.2463 3.62366 14.9986 6.84016 18.1779C10.0279 21.3573 13.7901 23.62 17.4374 24.5939C18.2415 24.7944 19.419 24.909 20.3667 24.9949C21.2857 25.0522 22.176 24.6226 22.6642 23.8492L24.7894 20.5553C25.2489 19.696 24.933 18.5789 24.0714 18.1206Z" fill="#FDD000"/>
</svg>
