<svg width="22" height="22" viewBox="0 0 22 22" fill="none" xmlns="http://www.w3.org/2000/svg">
<path d="M7.56208 19.2524C8.32203 19.2524 8.93809 18.6363 8.93809 17.8764C8.93809 17.1164 8.32203 16.5004 7.56208 16.5004C6.80213 16.5004 6.18607 17.1164 6.18607 17.8764C6.18607 18.6363 6.80213 19.2524 7.56208 19.2524Z" fill="#3F566B"/>
<path d="M17.1894 19.2524C17.9493 19.2524 18.5654 18.6363 18.5654 17.8764C18.5654 17.1164 17.9493 16.5004 17.1894 16.5004C16.4294 16.5004 15.8134 17.1164 15.8134 17.8764C15.8134 18.6363 16.4294 19.2524 17.1894 19.2524Z" fill="#3F566B"/>
<path d="M19.6279 5.19068C19.5313 5.07254 19.4096 4.97739 19.2717 4.91213C19.1337 4.84687 18.983 4.81315 18.8304 4.81342H5.75284L5.48944 3.31896C5.46136 3.15978 5.37808 3.01558 5.25423 2.91169C5.13039 2.80781 4.9739 2.75088 4.81226 2.75092H2.06226C1.87992 2.75092 1.70505 2.82335 1.57612 2.95228C1.44719 3.08121 1.37476 3.25608 1.37476 3.43842C1.37476 3.62075 1.44719 3.79562 1.57612 3.92455C1.70505 4.05348 1.87992 4.12592 2.06226 4.12592H4.23562L6.19757 15.2454C6.22565 15.4046 6.30893 15.5488 6.43278 15.6526C6.55662 15.7565 6.71311 15.8135 6.87476 15.8134H17.8748C18.0571 15.8134 18.232 15.741 18.3609 15.6121C18.4898 15.4831 18.5623 15.3083 18.5623 15.1259C18.5623 14.9436 18.4898 14.7687 18.3609 14.6398C18.232 14.5109 18.0571 14.4384 17.8748 14.4384H7.4514L7.20905 13.0634H17.5929C17.8313 13.0631 18.0623 12.9804 18.2468 12.8294C18.4312 12.6784 18.5579 12.4682 18.6052 12.2346L19.8427 6.04705C19.8725 5.8973 19.8687 5.74281 19.8316 5.59471C19.7944 5.44661 19.7249 5.30862 19.6279 5.19068V5.19068Z" fill="#3F566B"/>
</svg>
