<svg width="26" height="26" viewBox="0 0 26 26" fill="none" xmlns="http://www.w3.org/2000/svg">
<path d="M13.0007 0.811821C6.28062 0.811821 0.813232 6.2792 0.813232 12.9993C0.813232 19.7194 6.28062 25.1868 13.0007 25.1868C19.7209 25.1868 25.1882 19.7194 25.1882 12.9993C25.1882 6.2792 19.7209 0.811821 13.0007 0.811821ZM17.4134 16.0866C17.5041 16.1728 17.5767 16.2763 17.6268 16.391C17.6769 16.5056 17.7035 16.6292 17.7051 16.7543C17.7067 16.8794 17.6833 17.0036 17.6361 17.1195C17.589 17.2354 17.5191 17.3407 17.4306 17.4292C17.3421 17.5177 17.2368 17.5876 17.1209 17.6347C17.005 17.6819 16.8808 17.7053 16.7557 17.7037C16.6306 17.7021 16.507 17.6755 16.3924 17.6254C16.2777 17.5753 16.1742 17.5027 16.088 17.412L13.0007 14.3253L9.91343 17.412C9.73618 17.5804 9.50017 17.6729 9.2557 17.6698C9.01124 17.6666 8.77767 17.5681 8.60479 17.3953C8.43192 17.2224 8.33341 16.9888 8.33028 16.7444C8.32715 16.4999 8.41964 16.2639 8.58804 16.0866L11.6748 12.9993L8.58804 9.91202C8.41964 9.73477 8.32715 9.49876 8.33028 9.25429C8.33341 9.00983 8.43192 8.77626 8.60479 8.60338C8.77767 8.43051 9.01124 8.332 9.2557 8.32887C9.50017 8.32574 9.73618 8.41823 9.91343 8.58663L13.0007 11.6733L16.088 8.58663C16.2653 8.41823 16.5013 8.32574 16.7458 8.32887C16.9902 8.332 17.2238 8.43051 17.3967 8.60338C17.5696 8.77626 17.6681 9.00983 17.6712 9.25429C17.6743 9.49876 17.5818 9.73477 17.4134 9.91202L14.3267 12.9993L17.4134 16.0866Z" fill="#D0D5DD"/>
</svg>
