<svg width="20" height="20" viewBox="0 0 20 20" fill="none" xmlns="http://www.w3.org/2000/svg">
<path d="M15.9365 18.75H7.18652C6.4406 18.75 5.72523 18.4537 5.19779 17.9263C4.67034 17.3988 4.37402 16.6834 4.37402 15.9375V7.18752C4.37402 6.44159 4.67034 5.72622 5.19779 5.19878C5.72523 4.67133 6.4406 4.37502 7.18652 4.37502H15.9365C16.6824 4.37502 17.3978 4.67133 17.9253 5.19878C18.4527 5.72622 18.749 6.44159 18.749 7.18752V15.9375C18.749 16.6834 18.4527 17.3988 17.9253 17.9263C17.3978 18.4537 16.6824 18.75 15.9365 18.75V18.75Z" fill="white"/>
<path d="M6.25049 3.12542H15.4645C15.2701 2.57746 14.9109 2.1031 14.4361 1.7674C13.9614 1.4317 13.3944 1.25112 12.813 1.25042H4.06299C3.31707 1.25042 2.6017 1.54673 2.07425 2.07418C1.5468 2.60162 1.25049 3.31699 1.25049 4.06292V12.8129C1.25119 13.3943 1.43178 13.9613 1.76748 14.4361C2.10317 14.9108 2.57754 15.27 3.12549 15.4645V6.25041C3.12549 5.42161 3.45473 4.62676 4.04078 4.04071C4.62683 3.45466 5.42169 3.12542 6.25049 3.12542V3.12542Z" fill="white"/>
</svg>
