<svg width="18" height="17" viewBox="0 0 18 17" fill="none" xmlns="http://www.w3.org/2000/svg">
<path d="M12.3998 0.166992C15.3498 0.166992 17.3332 2.06699 17.3332 4.89199V12.117C17.3332 14.9412 15.3498 16.8337 12.3998 16.8337H5.5915C2.64984 16.8337 0.666504 14.9412 0.666504 12.117V4.89199C0.666504 2.06699 2.64984 0.166992 5.5915 0.166992H12.3998ZM9.70817 4.93366C9.4665 4.69199 9.0665 4.69199 8.82484 4.93366C8.58317 5.18366 8.58317 5.57533 8.82484 5.82533L10.8915 7.87533H5.59984C5.24984 7.87533 4.97484 8.15866 4.97484 8.50033C4.97484 8.85033 5.24984 9.12533 5.59984 9.12533H10.8915L8.82484 11.1837C8.70817 11.3003 8.6415 11.467 8.6415 11.6253C8.6415 11.7828 8.70817 11.942 8.82484 12.067C9.0665 12.3087 9.4665 12.3087 9.70817 12.067L12.8498 8.94199C13.0832 8.70866 13.0832 8.29199 12.8498 8.05866L9.70817 4.93366Z" fill="#42B2E9"/>
</svg>
