<svg width="19" height="14" viewBox="0 0 19 14" fill="none" xmlns="http://www.w3.org/2000/svg">
<path d="M16.0801 0.812012H2.95508C2.37511 0.81257 1.81907 1.02017 1.40897 1.38926C0.998866 1.75835 0.768199 2.25879 0.767578 2.78076V11.2183C0.768199 11.7402 0.998866 12.2407 1.40897 12.6098C1.81907 12.9789 2.37511 13.1865 2.95508 13.187H16.0801C16.66 13.1865 17.2161 12.9789 17.6262 12.6098C18.0363 12.2407 18.267 11.7402 18.2676 11.2183V2.78076C18.267 2.25879 18.0363 1.75835 17.6262 1.38926C17.2161 1.02017 16.66 0.81257 16.0801 0.812012V0.812012ZM15.5262 4.06854L9.90117 8.00604C9.79148 8.08278 9.65651 8.12444 9.51758 8.12444C9.37864 8.12444 9.24367 8.08278 9.13398 8.00604L3.50898 4.06854C3.4429 4.02362 3.38739 3.96733 3.34568 3.90293C3.30397 3.83854 3.2769 3.76733 3.26603 3.69344C3.25517 3.61955 3.26073 3.54445 3.2824 3.47251C3.30406 3.40057 3.34139 3.33323 3.39223 3.27438C3.44306 3.21554 3.50638 3.16638 3.57851 3.12975C3.65063 3.09313 3.73013 3.06977 3.81238 3.06103C3.89462 3.05229 3.97798 3.05836 4.0576 3.07886C4.13722 3.09937 4.21151 3.13391 4.27617 3.18049L9.51758 6.8494L14.759 3.18049C14.89 3.09141 15.0548 3.05234 15.2176 3.07173C15.3804 3.09112 15.5282 3.16741 15.629 3.2841C15.7299 3.40079 15.7756 3.54851 15.7563 3.6953C15.7371 3.8421 15.6544 3.97617 15.5262 4.06854Z" fill="#3F566B"/>
</svg>
