<svg width="22" height="22" viewBox="0 0 22 22" fill="none" xmlns="http://www.w3.org/2000/svg">
<path d="M11.0008 2.74963C6.44609 2.74963 2.75078 6.44495 2.75078 10.9996C2.75078 15.5543 6.44609 19.2496 11.0008 19.2496C15.5555 19.2496 19.2508 15.5543 19.2508 10.9996C19.2508 6.44495 15.5555 2.74963 11.0008 2.74963ZM11.4494 15.7262H10.1513C10.1221 15.7261 10.0941 15.7144 10.0735 15.6937C10.0529 15.673 10.0413 15.645 10.0413 15.6158V14.3181C10.0413 14.2889 10.0529 14.2609 10.0735 14.2402C10.0941 14.2195 10.1221 14.2078 10.1513 14.2077H11.4494C11.4786 14.2078 11.5066 14.2195 11.5272 14.2402C11.5478 14.2609 11.5594 14.2889 11.5594 14.3181V15.6158C11.5594 15.645 11.5478 15.673 11.5272 15.6937C11.5066 15.7144 11.4786 15.7261 11.4494 15.7262V15.7262ZM12.1798 11.4723C11.4833 11.9398 11.3875 12.3682 11.3875 12.7614V13.234C11.3875 13.2682 11.3739 13.301 11.3497 13.3252C11.3256 13.3493 11.2928 13.3629 11.2586 13.3629H10.3133C10.2791 13.3629 10.2463 13.3493 10.2221 13.3252C10.198 13.301 10.1844 13.2682 10.1844 13.234V12.7614C10.1844 11.8199 10.6175 11.0714 11.5087 10.4728C12.3371 9.91682 12.8055 9.56448 12.8055 8.78975C12.8055 8.26295 12.5047 7.86292 11.8821 7.56686C11.7355 7.49725 11.4094 7.42936 11.0081 7.43409C10.5045 7.44053 10.1135 7.56085 9.81227 7.80319C9.24422 8.26038 9.19609 8.75838 9.19609 8.76526C9.17251 8.91133 9.16044 9.05902 9.16 9.20698C9.16 9.24117 9.14642 9.27395 9.12225 9.29813C9.09807 9.3223 9.06528 9.33588 9.03109 9.33588H8.11801C8.08601 9.33606 8.05509 9.32432 8.03126 9.30295C8.00744 9.28159 7.99241 9.25213 7.9891 9.2203C7.97363 9.04871 7.97493 8.87601 7.99297 8.70467C8.00242 8.60026 8.07031 7.65967 9.05731 6.86561C9.56906 6.45397 10.22 6.23999 10.9909 6.23053C11.5366 6.22409 12.0492 6.31647 12.3968 6.48061C13.4371 6.97518 14.0086 7.79545 14.0086 8.78975C14.0086 10.2434 13.0371 10.8961 12.1798 11.4723Z" fill="#3F566B"/>
</svg>
