<svg width="20" height="20" viewBox="0 0 20 20" fill="none" xmlns="http://www.w3.org/2000/svg">
<path d="M18.8983 1.26783C18.7504 1.23266 18.5947 1.25164 18.4596 1.32135L17.4991 1.80103L16.5303 1.31666C16.4435 1.27327 16.3479 1.25068 16.2508 1.25068C16.1538 1.25068 16.0581 1.27327 15.9713 1.31666L14.9905 1.80142L14.0225 1.31666C13.9355 1.27295 13.8394 1.25019 13.742 1.25019C13.6447 1.25019 13.5486 1.27295 13.4616 1.31666L12.4991 1.79986L11.544 1.31783C11.4572 1.27383 11.3613 1.2507 11.264 1.25029C11.1667 1.24989 11.0706 1.27221 10.9834 1.31549L9.99907 1.80182L9.03032 1.31627C8.9434 1.2729 8.84758 1.25033 8.75044 1.25033C8.6533 1.25033 8.55748 1.2729 8.47056 1.31627L7.49907 1.80103L6.52876 1.31627C6.40367 1.25356 6.26116 1.23465 6.12404 1.26256C5.98693 1.29046 5.86314 1.36357 5.77251 1.47017C5.67482 1.5866 5.62215 1.73422 5.62407 1.88619V11.2503L5.62603 11.2522H13.1241C13.4556 11.2522 13.7735 11.3839 14.008 11.6183C14.2424 11.8527 14.3741 12.1707 14.3741 12.5022V16.5628C14.3741 17.771 15.6659 18.7503 16.8741 18.7503H17.3428C17.8815 18.7503 18.3982 18.5362 18.7791 18.1553C19.1601 17.7744 19.3741 17.2577 19.3741 16.719V1.87525C19.3742 1.73537 19.3274 1.59949 19.2411 1.48936C19.1548 1.37923 19.0341 1.30123 18.8983 1.26783ZM16.2491 9.37525H11.2686C10.9311 9.37525 10.6397 9.11588 10.6249 8.77838C10.6211 8.69403 10.6344 8.60979 10.664 8.53074C10.6937 8.45169 10.7391 8.37946 10.7974 8.31842C10.8557 8.25739 10.9258 8.2088 11.0035 8.1756C11.0811 8.1424 11.1646 8.12527 11.2491 8.12525H16.2295C16.567 8.12525 16.8584 8.38463 16.8733 8.72213C16.8771 8.80647 16.8638 8.89072 16.8341 8.96977C16.8045 9.04882 16.7591 9.12105 16.7008 9.18208C16.6424 9.24312 16.5723 9.29171 16.4947 9.32491C16.4171 9.35811 16.3335 9.37523 16.2491 9.37525ZM16.2491 6.25025H8.76861C8.43111 6.25025 8.1397 5.99088 8.12486 5.65338C8.12106 5.56903 8.13439 5.48479 8.16404 5.40574C8.19369 5.32669 8.23906 5.25446 8.29739 5.19342C8.35573 5.13239 8.42583 5.0838 8.50346 5.0506C8.58109 5.0174 8.66464 5.00027 8.74907 5.00025H16.2295C16.567 5.00025 16.8584 5.25963 16.8733 5.59713C16.8771 5.68147 16.8638 5.76572 16.8341 5.84477C16.8045 5.92382 16.7591 5.99605 16.7008 6.05708C16.6424 6.11812 16.5723 6.16671 16.4947 6.19991C16.4171 6.23311 16.3335 6.25023 16.2491 6.25025Z" fill="white"/>
<path d="M13.124 16.563V13.1255C13.124 12.9597 13.0582 12.8007 12.941 12.6835C12.8238 12.5663 12.6648 12.5005 12.499 12.5005H1.87402C1.54248 12.5015 1.22484 12.6338 0.990591 12.8684C0.756338 13.103 0.624538 13.4209 0.624023 13.7524C0.624023 15.727 0.849805 16.5481 1.18887 17.1731C1.76426 18.2344 2.80605 18.7505 4.37402 18.7505H13.9709C14.0017 18.7505 14.0319 18.7414 14.0575 18.7243C14.0832 18.7073 14.1033 18.683 14.1152 18.6545C14.1271 18.6261 14.1303 18.5948 14.1244 18.5645C14.1186 18.5342 14.1039 18.5064 14.0822 18.4844C13.7127 18.1137 13.124 17.6176 13.124 16.563Z" fill="white"/>
</svg>
