<svg width="17" height="19" viewBox="0 0 17 19" fill="none" xmlns="http://www.w3.org/2000/svg">
<path d="M15.877 14.3833C15.6006 15.0192 15.2733 15.6045 14.8941 16.1426C14.3772 16.8762 13.954 17.384 13.6279 17.666C13.1223 18.1288 12.5806 18.3659 12.0005 18.3794C11.5841 18.3794 11.0819 18.2614 10.4973 18.0221C9.91081 17.7839 9.37183 17.666 8.87899 17.666C8.36212 17.666 7.80779 17.7839 7.21485 18.0221C6.62102 18.2614 6.14263 18.3861 5.77687 18.3985C5.22062 18.422 4.66617 18.1783 4.11273 17.666C3.7595 17.3593 3.31768 16.8335 2.7884 16.0887C2.22052 15.2933 1.75364 14.371 1.38788 13.3195C0.99617 12.1837 0.799805 11.0838 0.799805 10.0191C0.799805 8.79937 1.06456 7.74739 1.59486 6.86584C2.01163 6.15775 2.56608 5.59918 3.26001 5.18913C3.95395 4.77909 4.70375 4.57013 5.51122 4.55676C5.95304 4.55676 6.53243 4.69281 7.25243 4.96018C7.97041 5.22846 8.43142 5.3645 8.63354 5.3645C8.78465 5.3645 9.29678 5.20542 10.165 4.88828C10.986 4.59417 11.6789 4.47239 12.2465 4.52036C13.7847 4.64394 14.9404 5.24755 15.7089 6.33503C14.3332 7.16479 13.6527 8.32697 13.6662 9.81786C13.6787 10.9791 14.1019 11.9455 14.9336 12.7128C15.3105 13.0689 15.7315 13.3442 16.1998 13.5396C16.0982 13.8329 15.991 14.1137 15.877 14.3833ZM12.3492 0.564116C12.3492 1.47432 12.0152 2.32418 11.3494 3.1108C10.5458 4.04594 9.57395 4.58631 8.52001 4.50104C8.50658 4.39184 8.49879 4.27692 8.49879 4.15615C8.49879 3.28235 8.88091 2.34721 9.5595 1.58261C9.89829 1.19548 10.3292 0.873585 10.8517 0.616804C11.3731 0.363854 11.8662 0.223967 12.3301 0.200012C12.3436 0.321693 12.3492 0.443381 12.3492 0.564104V0.564116Z" fill="white"/>
</svg>
