<svg width="13" height="18" viewBox="0 0 13 18" fill="none" xmlns="http://www.w3.org/2000/svg">
<path d="M6.50488 0.234283C3.05449 0.234283 0.254883 2.72276 0.254883 5.7891C0.254883 10.7267 6.50488 17.5159 6.50488 17.5159C6.50488 17.5159 12.7549 10.7267 12.7549 5.7891C12.7549 2.72276 9.95528 0.234283 6.50488 0.234283ZM6.50488 8.8751C6.01043 8.8751 5.52708 8.73031 5.11596 8.45903C4.70484 8.18776 4.3844 7.80218 4.19518 7.35107C4.00597 6.89995 3.95646 6.40356 4.05292 5.92466C4.14938 5.44576 4.38749 5.00586 4.73712 4.66059C5.08675 4.31532 5.53221 4.08019 6.01716 3.98493C6.50211 3.88967 7.00478 3.93856 7.46159 4.12542C7.91841 4.31228 8.30885 4.62871 8.58356 5.0347C8.85826 5.4407 9.00488 5.91801 9.00488 6.4063C9.00416 7.06085 8.74054 7.68838 8.27185 8.15122C7.80317 8.61405 7.1677 8.87439 6.50488 8.8751Z" fill="#3F566B"/>
</svg>
