<svg width="154" height="79" viewBox="0 0 154 79" fill="none" xmlns="http://www.w3.org/2000/svg">
<path d="M2.03305 78.3939H1.14355V68.9561H2.03305V78.3939Z" fill="#242424"/>
<path d="M4.68192 78.3939H3.79897V68.9561H4.68192L10.2151 76.8373H10.2609V68.9561H11.1439V78.3939H10.2805L4.72771 70.5062H4.68192V78.3939Z" fill="#242424"/>
<path d="M12.4585 75.8301H13.3545C13.4025 76.3969 13.6706 76.8569 14.159 77.2101C14.6473 77.5589 15.26 77.7333 15.9969 77.7333C16.7032 77.7333 17.2831 77.5611 17.7366 77.2166C18.1944 76.8722 18.4233 76.434 18.4233 75.902C18.4233 75.4616 18.2642 75.1041 17.9459 74.8294C17.6276 74.5503 17.1174 74.3214 16.4154 74.1426L15.2447 73.8418C14.3683 73.6194 13.7273 73.3142 13.3218 72.9261C12.9207 72.5381 12.7201 72.0345 12.7201 71.4153C12.7201 70.6566 13.0253 70.0331 13.6358 69.5447C14.2462 69.052 15.018 68.8057 15.9511 68.8057C16.8667 68.8057 17.6276 69.0498 18.2337 69.5382C18.8441 70.0222 19.1624 70.6392 19.1886 71.3891H18.2925C18.2489 70.8572 18.0113 70.4299 17.5796 70.1072C17.148 69.7802 16.5964 69.6167 15.9249 69.6167C15.2665 69.6167 14.7215 69.7824 14.2898 70.1137C13.8625 70.4408 13.6488 70.8637 13.6488 71.3826C13.6488 71.7881 13.8036 72.1195 14.1132 72.3767C14.4228 72.6296 14.9264 72.8455 15.6241 73.0242L16.6444 73.2859C17.5949 73.5257 18.2816 73.8418 18.7046 74.2342C19.1275 74.6266 19.339 75.1499 19.339 75.8039C19.339 76.6324 19.0294 77.2973 18.4103 77.7987C17.7911 78.2958 16.9605 78.5444 15.9184 78.5444C14.9329 78.5444 14.1219 78.2958 13.4853 77.7987C12.8487 77.2973 12.5064 76.6411 12.4585 75.8301Z" fill="#242424"/>
<path d="M21.5366 68.9561V75.0452C21.5366 75.8475 21.7829 76.4928 22.2757 76.9812C22.7684 77.4695 23.442 77.7137 24.2966 77.7137C25.1513 77.7137 25.8249 77.4695 26.3176 76.9812C26.8104 76.4928 27.0567 75.8475 27.0567 75.0452V68.9561H27.9527V75.0975C27.9527 76.1266 27.6235 76.9594 26.9651 77.596C26.3067 78.2282 25.4172 78.5444 24.2966 78.5444C23.1761 78.5444 22.2866 78.2282 21.6282 77.596C20.9741 76.9594 20.6471 76.1266 20.6471 75.0975V68.9561H21.5366Z" fill="#242424"/>
<path d="M30.6016 69.754V73.7371H33.015C33.6996 73.7371 34.2316 73.5627 34.6109 73.2139C34.9946 72.8651 35.1865 72.3746 35.1865 71.7423C35.1865 71.1188 34.9902 70.6326 34.5978 70.2838C34.2097 69.9306 33.6713 69.754 32.9823 69.754H30.6016ZM30.6016 74.5285V78.3939H29.7121V68.9561H33.087C34.007 68.9561 34.7395 69.2068 35.2846 69.7082C35.834 70.2053 36.1087 70.8746 36.1087 71.7162C36.1087 72.3833 35.9299 72.9545 35.5723 73.4297C35.2148 73.905 34.7199 74.2233 34.0877 74.3846L36.3703 78.3939H35.3303L33.1589 74.5285H30.6016Z" fill="#242424"/>
<path d="M43.8329 78.3939L42.7864 75.5031H38.8229L37.7765 78.3939H36.8281L40.3599 68.9561H41.2494L44.7747 78.3939H43.8329ZM40.7851 70.0614L39.0911 74.7313H42.5183L40.8243 70.0614H40.7851Z" fill="#242424"/>
<path d="M46.6976 78.3939H45.8146V68.9561H46.6976L52.2308 76.8373H52.2766V68.9561H53.1595V78.3939H52.2962L46.7434 70.5062H46.6976V78.3939Z" fill="#242424"/>
<path d="M58.7581 78.5444C57.4719 78.5444 56.4494 78.104 55.6907 77.2232C54.932 76.3381 54.5526 75.1477 54.5526 73.6521C54.5526 72.174 54.932 70.9967 55.6907 70.1203C56.4537 69.2439 57.4762 68.8057 58.7581 68.8057C59.4165 68.8057 60.0204 68.9387 60.5698 69.2046C61.1236 69.4706 61.5771 69.8434 61.9302 70.323C62.2834 70.8027 62.5014 71.3455 62.5843 71.9516H61.6882C61.5574 71.2714 61.2195 70.7155 60.6745 70.2838C60.1294 69.8521 59.4907 69.6363 58.7581 69.6363C57.7553 69.6363 56.9552 70.0004 56.3578 70.7285C55.7648 71.4524 55.4683 72.4269 55.4683 73.6521C55.4683 74.8948 55.7648 75.8824 56.3578 76.6149C56.9552 77.3475 57.7575 77.7137 58.7647 77.7137C59.519 77.7137 60.16 77.524 60.6876 77.1447C61.2152 76.7654 61.5487 76.2508 61.6882 75.6012H62.5843C62.4186 76.5212 61.9956 77.2428 61.3154 77.766C60.6352 78.2849 59.7828 78.5444 58.7581 78.5444Z" fill="#242424"/>
<path d="M69.6022 77.5829V78.3939H63.9054V68.9561H69.6022V69.7671H64.7949V73.1616H69.3602V73.9595H64.7949V77.5829H69.6022Z" fill="#242424"/>
<path d="M77.9216 78.5444C76.6353 78.5444 75.6128 78.104 74.8541 77.2232C74.0954 76.3381 73.7161 75.1477 73.7161 73.6521C73.7161 72.174 74.0954 70.9967 74.8541 70.1203C75.6172 69.2439 76.6396 68.8057 77.9216 68.8057C78.58 68.8057 79.1839 68.9387 79.7333 69.2046C80.287 69.4706 80.7405 69.8434 81.0937 70.323C81.4469 70.8027 81.6649 71.3455 81.7477 71.9516H80.8517C80.7209 71.2714 80.3829 70.7155 79.8379 70.2838C79.2929 69.8521 78.6541 69.6363 77.9216 69.6363C76.9187 69.6363 76.1186 70.0004 75.5212 70.7285C74.9282 71.4524 74.6317 72.4269 74.6317 73.6521C74.6317 74.8948 74.9282 75.8824 75.5212 76.6149C76.1186 77.3475 76.9209 77.7137 77.9281 77.7137C78.6824 77.7137 79.3234 77.524 79.851 77.1447C80.3786 76.7654 80.7122 76.2508 80.8517 75.6012H81.7477C81.582 76.5212 81.1591 77.2428 80.4789 77.766C79.7987 78.2849 78.9462 78.5444 77.9216 78.5444Z" fill="#242424"/>
<path d="M86.9735 68.8057C88.2903 68.8057 89.3346 69.2439 90.1064 70.1203C90.8781 70.9967 91.264 72.1827 91.264 73.6783C91.264 75.1739 90.8781 76.3599 90.1064 77.2363C89.3346 78.1083 88.2903 78.5444 86.9735 78.5444C85.6567 78.5444 84.6124 78.1083 83.8407 77.2363C83.0732 76.3599 82.6895 75.1739 82.6895 73.6783C82.6895 72.1827 83.0754 70.9967 83.8472 70.1203C84.619 69.2439 85.6611 68.8057 86.9735 68.8057ZM89.4327 70.7285C88.8266 70.0004 88.0069 69.6363 86.9735 69.6363C85.9401 69.6363 85.1204 70.0004 84.5143 70.7285C83.9082 71.4567 83.6052 72.44 83.6052 73.6783C83.6052 74.9122 83.9082 75.8933 84.5143 76.6215C85.1248 77.3496 85.9445 77.7137 86.9735 77.7137C88.0069 77.7137 88.8266 77.3496 89.4327 76.6215C90.0432 75.8933 90.3484 74.9122 90.3484 73.6783C90.3484 72.44 90.0432 71.4567 89.4327 70.7285Z" fill="#242424"/>
<path d="M101.748 68.9561V78.3939H100.911V70.6501H100.872L97.5886 78.3481H96.8103L93.5336 70.6501H93.4943V78.3939H92.6571V68.9561H93.684L97.1831 77.2166H97.2224L100.715 68.9561H101.748Z" fill="#242424"/>
<path d="M103.514 68.9561H106.863C107.761 68.9561 108.489 69.2264 109.047 69.7671C109.61 70.3078 109.891 71.0163 109.891 71.8927C109.891 72.7692 109.61 73.4799 109.047 74.0249C108.485 74.5656 107.755 74.8359 106.856 74.8359H104.404V78.3939H103.514V68.9561ZM104.404 69.754V74.038H106.654C107.377 74.038 107.944 73.8483 108.354 73.469C108.768 73.0896 108.975 72.5642 108.975 71.8927C108.975 71.2213 108.771 70.698 108.361 70.323C107.951 69.9437 107.382 69.754 106.654 69.754H104.404Z" fill="#242424"/>
<path d="M116.602 78.3939L115.555 75.5031H111.592L110.545 78.3939H109.597L113.129 68.9561H114.018L117.543 78.3939H116.602ZM113.554 70.0614L111.86 74.7313H115.287L113.593 70.0614H113.554Z" fill="#242424"/>
<path d="M119.466 78.3939H118.583V68.9561H119.466L125 76.8373H125.045V68.9561H125.928V78.3939H125.065L119.512 70.5062H119.466V78.3939Z" fill="#242424"/>
<path d="M131.252 78.3939H130.356V74.3127L126.975 68.9561H127.995L130.788 73.4363H130.821L133.613 68.9561H134.634L131.252 74.3127V78.3939Z" fill="#242424"/>
<path d="M0.114436 15.701C0.114436 14.4028 0.801049 13.7538 2.17427 13.7538L23.6881 13.7538C25.0613 13.7538 25.7479 14.4028 25.7479 15.701V17.3236C25.7479 18.6217 25.0613 19.2708 23.6881 19.2708L6.17951 19.2708L6.17951 32.9011H19.9117C21.285 32.9011 21.9716 33.5502 21.9716 34.8483V36.471C21.9716 37.7691 21.285 38.4182 19.9117 38.4182H6.17951L6.17951 52.8057L23.5737 52.8057C24.9469 52.8057 25.6335 53.4548 25.6335 54.7529V56.3756C25.6335 57.6737 24.9469 58.3227 23.5737 58.3227L2.05984 58.3227C0.801049 58.3227 0 57.6737 0 56.3756L0 15.701H0.114436Z" fill="#242424"/>
<path d="M38.1069 13.8613H40.1667C41.5399 13.8613 42.2265 14.5104 42.2265 15.8085V35.3886L57.9042 15.1595C58.4764 14.294 59.163 13.8613 60.5362 13.8613H63.3971C64.6559 13.8613 65.1136 15.2676 64.427 16.133L51.1525 32.3596L64.7703 55.9422C65.3425 56.9158 64.8847 58.1058 63.5115 58.1058H60.8795C59.5063 58.1058 58.8197 57.6731 58.2475 56.5913L47.3761 37.1194L42.341 43.2855V56.1586C42.341 57.4567 41.6544 58.1058 40.2811 58.1058H38.2213C36.9625 58.1058 36.1615 57.4567 36.1615 56.1586L36.1615 15.7003C36.047 14.4022 36.8481 13.8613 38.1069 13.8613Z" fill="#242424"/>
<path d="M81.0204 19.2708H72.3233C70.95 19.2708 70.2634 18.6217 70.2634 17.3236V15.701C70.2634 14.4028 70.95 13.7538 72.3233 13.7538L95.8969 13.7538C97.2702 13.7538 97.9568 14.4028 97.9568 15.701V17.3236C97.9568 18.6217 97.2702 19.2708 95.8969 19.2708H87.0854V56.2674C87.0854 57.5655 86.3988 58.2146 85.0256 58.2146H82.9658C81.5925 58.2146 80.9059 57.5655 80.9059 56.2674V19.2708H81.0204Z" fill="#242424"/>
<path d="M105.51 26.6976C105.51 17.6107 111.804 13.1055 119.814 13.1055C127.825 13.1055 133.89 17.6489 133.89 26.7358V56.2681C133.89 57.5663 133.203 58.2153 131.83 58.2153H129.77C128.397 58.2153 127.71 57.5663 127.71 56.2681V43.1787H111.689V56.2681C111.689 57.5663 111.003 58.2153 109.629 58.2153H107.57C106.196 58.2153 105.51 57.5663 105.51 56.2681V26.7358V26.6976ZM111.804 37.7699H127.825V27.2767C127.825 20.786 124.163 18.5143 119.814 18.5143C115.351 18.5143 111.804 20.6779 111.804 27.2767V37.7699Z" fill="#242424"/>
<path d="M144.988 0.664063C140.296 0.664063 136.52 4.2339 136.52 8.66917C136.52 13.1044 140.296 16.6743 144.988 16.6743C149.68 16.6743 153.456 13.1044 153.456 8.66917C153.571 4.2339 149.68 0.664063 144.988 0.664063ZM144.988 13.5371C142.242 13.5371 139.953 11.3736 139.953 8.77735C139.953 6.1811 142.242 4.01755 144.988 4.01755C147.735 4.01755 150.023 6.1811 150.023 8.77735C150.138 11.3736 147.849 13.5371 144.988 13.5371Z" fill="#242424"/>
</svg>
