<svg width="20" height="20" viewBox="0 0 20 20" fill="none" xmlns="http://www.w3.org/2000/svg">
<path d="M16.1012 2.51589C14.3673 1.12857 12.2125 0.373233 9.99189 0.37433C7.37423 0.37433 4.92931 1.38281 3.10142 3.21413C1.33497 4.98617 0.366884 7.32581 0.374619 9.80038C0.374679 11.6147 0.90731 13.389 1.90645 14.9034L1.91462 14.915C1.92665 14.9326 1.93911 14.9502 1.95157 14.9674C1.96403 14.9846 1.9795 15.0069 1.98294 15.0125L1.99239 15.0297C2.04095 15.1156 2.07833 15.2205 2.04524 15.3262L1.25376 18.1905C1.2221 18.297 1.20476 18.4072 1.2022 18.5183C1.20162 18.8106 1.31697 19.0911 1.52293 19.2984C1.72889 19.5058 2.00867 19.623 2.30091 19.6243C2.45534 19.6192 2.60752 19.5859 2.74993 19.5259L5.64989 18.4792L5.68642 18.465C5.7653 18.4319 5.85008 18.4151 5.93563 18.4156C6.01452 18.4158 6.09271 18.4304 6.16638 18.4586C6.23599 18.4857 6.86806 18.7276 7.53493 18.9141C8.08923 19.0687 9.24251 19.3008 10.1461 19.3008C12.7092 19.3008 15.1026 18.3082 16.8849 16.5052C18.6518 14.716 19.6246 12.3377 19.6246 9.80554C19.6248 9.15555 19.556 8.50738 19.4192 7.87195C18.9749 5.78281 17.7967 3.88015 16.1012 2.51589ZM5.87462 11.3743C5.60267 11.3743 5.33683 11.2937 5.11071 11.1426C4.88459 10.9915 4.70836 10.7768 4.60428 10.5255C4.50021 10.2743 4.47298 9.9978 4.52604 9.73108C4.57909 9.46436 4.71005 9.21935 4.90235 9.02706C5.09464 8.83476 5.33965 8.7038 5.60637 8.65075C5.87309 8.59769 6.14956 8.62492 6.40081 8.72899C6.65206 8.83307 6.8668 9.0093 7.01789 9.23542C7.16898 9.46154 7.24962 9.72738 7.24962 9.99933C7.24962 10.364 7.10475 10.7137 6.84689 10.9716C6.58903 11.2295 6.23929 11.3743 5.87462 11.3743ZM9.99962 11.3743C9.72767 11.3743 9.46183 11.2937 9.23571 11.1426C9.00959 10.9915 8.83336 10.7768 8.72928 10.5255C8.62521 10.2743 8.59798 9.9978 8.65104 9.73108C8.70409 9.46436 8.83505 9.21935 9.02735 9.02706C9.21965 8.83476 9.46465 8.7038 9.73137 8.65075C9.99809 8.59769 10.2746 8.62492 10.5258 8.72899C10.7771 8.83307 10.9918 9.0093 11.1429 9.23542C11.294 9.46154 11.3746 9.72738 11.3746 9.99933C11.3746 10.364 11.2298 10.7137 10.9719 10.9716C10.714 11.2295 10.3643 11.3743 9.99962 11.3743V11.3743ZM14.1246 11.3743C13.8527 11.3743 13.5868 11.2937 13.3607 11.1426C13.1346 10.9915 12.9584 10.7768 12.8543 10.5255C12.7502 10.2743 12.723 9.9978 12.776 9.73108C12.8291 9.46436 12.9601 9.21935 13.1523 9.02706C13.3446 8.83476 13.5896 8.7038 13.8564 8.65075C14.1231 8.59769 14.3996 8.62492 14.6508 8.72899C14.9021 8.83307 15.1168 9.0093 15.2679 9.23542C15.419 9.46154 15.4996 9.72738 15.4996 9.99933C15.4996 10.364 15.3548 10.7137 15.0969 10.9716C14.839 11.2295 14.4893 11.3743 14.1246 11.3743Z" fill="#3F566B"/>
</svg>
