<svg width="16" height="16" viewBox="0 0 16 16" fill="none" xmlns="http://www.w3.org/2000/svg">
<path d="M7.99903 0.188065C3.69121 0.188065 0.186523 3.69275 0.186523 8.00057C0.186523 12.3084 3.69121 15.8131 7.99903 15.8131C12.3068 15.8131 15.8115 12.3084 15.8115 8.00057C15.8115 3.69275 12.3068 0.188065 7.99903 0.188065ZM7.99903 3.39119C8.1999 3.39119 8.39626 3.45076 8.56328 3.56235C8.7303 3.67395 8.86047 3.83257 8.93734 4.01815C9.01421 4.20373 9.03433 4.40794 8.99514 4.60495C8.95595 4.80197 8.85922 4.98293 8.71718 5.12497C8.57514 5.26701 8.39418 5.36374 8.19717 5.40293C8.00015 5.44211 7.79595 5.422 7.61036 5.34513C7.42478 5.26826 7.26616 5.13809 7.15457 4.97107C7.04297 4.80405 6.9834 4.60769 6.9834 4.40682C6.9834 4.13746 7.0904 3.87913 7.28087 3.68866C7.47134 3.49819 7.72967 3.39119 7.99903 3.39119V3.39119ZM9.87403 12.2193H6.43653C6.27077 12.2193 6.11179 12.1535 5.99458 12.0363C5.87737 11.9191 5.81153 11.7601 5.81153 11.5943C5.81153 11.4286 5.87737 11.2696 5.99458 11.1524C6.11179 11.0352 6.27077 10.9693 6.43653 10.9693H7.53028V7.53182H6.90528C6.73952 7.53182 6.58055 7.46597 6.46333 7.34876C6.34612 7.23155 6.28028 7.07258 6.28028 6.90682C6.28028 6.74106 6.34612 6.58209 6.46333 6.46488C6.58055 6.34767 6.73952 6.28182 6.90528 6.28182H8.15528C8.32104 6.28182 8.48001 6.34767 8.59722 6.46488C8.71443 6.58209 8.78028 6.74106 8.78028 6.90682V10.9693H9.87403C10.0398 10.9693 10.1988 11.0352 10.316 11.1524C10.4332 11.2696 10.499 11.4286 10.499 11.5943C10.499 11.7601 10.4332 11.9191 10.316 12.0363C10.1988 12.1535 10.0398 12.2193 9.87403 12.2193Z" fill="#42B2E9"/>
</svg>
