<svg width="16" height="10" viewBox="0 0 16 10" fill="none" xmlns="http://www.w3.org/2000/svg">
<path d="M0.255743 1.06452L0.779844 0.536774C0.944789 0.37196 1.16424 0.281162 1.39878 0.281162C1.63318 0.281162 1.85289 0.37196 2.01784 0.536774L7.99642 6.51562L13.9819 0.53014C14.1466 0.365326 14.3663 0.274658 14.6007 0.274658C14.8351 0.274658 15.055 0.365326 15.2198 0.53014L15.744 1.05463C16.0853 1.39571 16.0853 1.95129 15.744 2.29237L8.61757 9.44442C8.45288 9.6091 8.23343 9.72514 7.99694 9.72514H7.99421C7.75967 9.72514 7.54022 9.60897 7.37554 9.44442L0.255743 2.31175C0.0907984 2.14706 0.000260353 1.92098 0 1.68657C0 1.45203 0.0907984 1.22907 0.255743 1.06452Z" fill="#242424"/>
</svg>
