<svg width="22" height="22" viewBox="0 0 22 22" fill="none" xmlns="http://www.w3.org/2000/svg">
<path d="M18.3904 9.62494H12.3748C11.8277 9.62494 11.3031 9.40764 10.9164 9.02085C10.5296 8.63405 10.3123 8.10945 10.3123 7.56244V1.54681C10.3123 1.50123 10.2942 1.45751 10.2619 1.42528C10.2297 1.39305 10.186 1.37494 10.1404 1.37494H6.18726C5.45791 1.37494 4.75844 1.66467 4.24271 2.1804C3.72699 2.69612 3.43726 3.39559 3.43726 4.12494V17.8749C3.43726 18.6043 3.72699 19.3038 4.24271 19.8195C4.75844 20.3352 5.45791 20.6249 6.18726 20.6249H15.8123C16.5416 20.6249 17.2411 20.3352 17.7568 19.8195C18.2725 19.3038 18.5623 18.6043 18.5623 17.8749V9.79681C18.5623 9.75123 18.5442 9.70751 18.5119 9.67528C18.4797 9.64305 18.436 9.62494 18.3904 9.62494ZM14.4373 16.4999H7.56226C7.37992 16.4999 7.20505 16.4275 7.07612 16.2986C6.94719 16.1696 6.87476 15.9948 6.87476 15.8124C6.87476 15.6301 6.94719 15.4552 7.07612 15.3263C7.20505 15.1974 7.37992 15.1249 7.56226 15.1249H14.4373C14.6196 15.1249 14.7945 15.1974 14.9234 15.3263C15.0523 15.4552 15.1248 15.6301 15.1248 15.8124C15.1248 15.9948 15.0523 16.1696 14.9234 16.2986C14.7945 16.4275 14.6196 16.4999 14.4373 16.4999ZM14.4373 13.0624H7.56226C7.37992 13.0624 7.20505 12.99 7.07612 12.8611C6.94719 12.7321 6.87476 12.5573 6.87476 12.3749C6.87476 12.1926 6.94719 12.0177 7.07612 11.8888C7.20505 11.7599 7.37992 11.6874 7.56226 11.6874H14.4373C14.6196 11.6874 14.7945 11.7599 14.9234 11.8888C15.0523 12.0177 15.1248 12.1926 15.1248 12.3749C15.1248 12.5573 15.0523 12.7321 14.9234 12.8611C14.7945 12.99 14.6196 13.0624 14.4373 13.0624Z" fill="#3F566B"/>
<path d="M18.0144 8.10396L11.8341 1.92374C11.8221 1.91179 11.8068 1.90366 11.7902 1.90037C11.7736 1.89709 11.7564 1.89879 11.7407 1.90526C11.725 1.91174 11.7116 1.9227 11.7022 1.93677C11.6927 1.95084 11.6877 1.96738 11.6876 1.98433V7.5629C11.6876 7.74526 11.76 7.92016 11.889 8.04911C12.0179 8.17806 12.1928 8.2505 12.3752 8.2505H17.9538C17.9707 8.25043 17.9873 8.24535 18.0013 8.2359C18.0154 8.22645 18.0264 8.21305 18.0328 8.19739C18.0393 8.18173 18.041 8.16451 18.0377 8.14788C18.0344 8.13126 18.0263 8.11597 18.0144 8.10396V8.10396Z" fill="#3F566B"/>
</svg>
