<svg width="18" height="18" viewBox="0 0 18 18" fill="none" xmlns="http://www.w3.org/2000/svg">
<path d="M8.99902 0.875275C4.51191 0.875275 0.874023 4.51317 0.874023 9.00028C0.874023 13.4874 4.51191 17.1253 8.99902 17.1253C13.4861 17.1253 17.124 13.4874 17.124 9.00028C17.124 4.51317 13.4861 0.875275 8.99902 0.875275ZM12.2682 11.9163C11.7061 12.5435 10.9753 12.9956 10.1631 13.2184C9.35096 13.4413 8.49179 13.4255 7.68834 13.173C6.8849 12.9204 6.17119 12.4418 5.63255 11.7944C5.09391 11.147 4.75314 10.3581 4.65098 9.52215C4.52174 9.60767 4.36533 9.64212 4.21212 9.61883C4.0589 9.59553 3.91981 9.51613 3.82183 9.39606C3.72386 9.27599 3.67399 9.12379 3.6819 8.96902C3.68981 8.81425 3.75494 8.66794 3.86465 8.55848L4.78652 7.6366C4.90202 7.52112 5.05813 7.45544 5.22145 7.45362C5.38476 7.45179 5.5423 7.51397 5.66035 7.62684L6.62402 8.54871C6.73223 8.6514 6.80014 8.78941 6.81548 8.9378C6.83082 9.08618 6.79258 9.23516 6.70766 9.35782C6.62275 9.48047 6.49676 9.56871 6.35247 9.60658C6.20818 9.64446 6.05511 9.62947 5.9209 9.56434C6.02795 10.1403 6.29428 10.6748 6.68967 11.1072C7.08507 11.5395 7.59371 11.8524 8.1579 12.0103C8.72209 12.1682 9.31924 12.1649 9.88163 12.0006C10.444 11.8364 10.9491 11.5179 11.3397 11.0811C11.4517 10.9626 11.6057 10.8926 11.7687 10.886C11.9318 10.8795 12.0909 10.937 12.2121 11.0461C12.3333 11.1553 12.407 11.3076 12.4175 11.4704C12.428 11.6332 12.3744 11.7936 12.2682 11.9175V11.9163ZM14.1338 9.44207L13.2119 10.3639C13.0964 10.4794 12.9403 10.5451 12.777 10.5469C12.6137 10.5488 12.4561 10.4866 12.3381 10.3737L11.3744 9.45184C11.2683 9.34968 11.2016 9.21332 11.1863 9.06682C11.1709 8.92032 11.2077 8.77309 11.2903 8.65111C11.3729 8.52914 11.4959 8.44026 11.6377 8.40015C11.7794 8.36005 11.9308 8.3713 12.065 8.43192C11.9577 7.85719 11.6916 7.32398 11.2969 6.89266C10.9022 6.46134 10.3946 6.14912 9.83167 5.99136C9.2687 5.83359 8.6728 5.83657 8.11143 5.99997C7.55006 6.16337 7.04564 6.48065 6.65527 6.9159C6.60046 6.977 6.53415 7.0267 6.46014 7.06217C6.38612 7.09764 6.30583 7.11818 6.22388 7.12262C6.14192 7.12707 6.05989 7.11532 5.98247 7.08806C5.90505 7.0608 5.83375 7.01856 5.77266 6.96375C5.71156 6.90894 5.66186 6.84263 5.62639 6.76861C5.59092 6.69459 5.57038 6.61431 5.56594 6.53235C5.56149 6.4504 5.57323 6.36836 5.60049 6.29094C5.62775 6.21352 5.66999 6.14223 5.72481 6.08113C6.2873 5.45398 7.01867 5.00227 7.8313 4.78013C8.64394 4.55798 9.50339 4.57482 10.3067 4.82862C11.11 5.08241 11.8231 5.56241 12.3606 6.21112C12.8981 6.85982 13.2372 7.64973 13.3373 8.48621C13.4657 8.3987 13.622 8.36213 13.7759 8.38363C13.9297 8.40513 14.0701 8.48316 14.1695 8.60252C14.269 8.72187 14.3204 8.87398 14.3138 9.0292C14.3072 9.18441 14.243 9.33161 14.1338 9.44207Z" fill="#3F566B"/>
</svg>
