<svg width="22" height="22" viewBox="0 0 22 22" fill="none" xmlns="http://www.w3.org/2000/svg">
<g clip-path="url(#clip0_1_300)">
<path d="M10.9995 14.4386C10.7752 14.4386 10.5527 14.4282 10.3331 14.4089C9.20014 14.3077 8.10459 13.9523 7.1279 13.3693C6.15121 12.7863 5.31851 11.9906 4.69171 11.0414L0.858902 17.8761H5.80031L8.2925 22.0011L11.8387 14.3917C11.5601 14.4227 11.2799 14.4384 10.9995 14.4386V14.4386Z" fill="#3F566B"/>
<path d="M17.3154 11.0321C16.4077 12.4068 15.0779 13.4494 13.5264 14.003L11.7595 17.8538L13.706 22.0003L16.1982 17.8753H21.1396L17.3154 11.0321Z" fill="#3F566B"/>
<path d="M11.0022 8.93999C12.1421 8.93999 13.0662 8.01589 13.0662 6.87597C13.0662 5.73604 12.1421 4.81195 11.0022 4.81195C9.86229 4.81195 8.9382 5.73604 8.9382 6.87597C8.9382 8.01589 9.86229 8.93999 11.0022 8.93999Z" fill="#3F566B"/>
<path d="M10.9995 0.686829C7.58781 0.686829 4.81203 3.46261 4.81203 6.87433C4.81203 10.286 7.58781 13.0618 10.9995 13.0618C14.4112 13.0618 17.187 10.286 17.187 6.87433C17.187 3.46261 14.4112 0.686829 10.9995 0.686829ZM10.9995 10.3118C10.3197 10.3118 9.65505 10.1102 9.08975 9.73251C8.52446 9.35479 8.08387 8.81792 7.82369 8.1898C7.56351 7.56168 7.49544 6.87052 7.62808 6.20371C7.76071 5.5369 8.0881 4.92439 8.56885 4.44365C9.04959 3.96291 9.66209 3.63552 10.3289 3.50288C10.9957 3.37024 11.6869 3.43832 12.315 3.69849C12.9431 3.95867 13.48 4.39926 13.8577 4.96456C14.2354 5.52985 14.437 6.19446 14.437 6.87433C14.436 7.7857 14.0735 8.65944 13.4291 9.30388C12.7846 9.94831 11.9109 10.3108 10.9995 10.3118V10.3118Z" fill="#3F566B"/>
</g>
<defs>
<clipPath id="clip0_1_300">
<rect width="22" height="22" fill="white"/>
</clipPath>
</defs>
</svg>
