<svg width="18" height="18" viewBox="0 0 18 18" fill="none" xmlns="http://www.w3.org/2000/svg">
<path d="M13.8622 0.250549H1.50123C1.16971 0.250549 0.851765 0.382245 0.617345 0.616666C0.382924 0.851086 0.251228 1.16903 0.251228 1.50055V16.5005C0.251228 16.8321 0.382924 17.15 0.617345 17.3844C0.851765 17.6189 1.16971 17.7505 1.50123 17.7505H16.5012C16.8325 17.7496 17.1499 17.6176 17.3841 17.3834C17.6183 17.1492 17.7503 16.8318 17.7512 16.5005V4.13961L13.8622 0.250549ZM3.37623 5.87555V3.37555H10.8762V5.87555H3.37623ZM12.1227 12.8974C12.0943 13.5023 11.8907 14.086 11.5367 14.5773C11.1827 15.0687 10.6936 15.4466 10.1288 15.6651C9.56402 15.8836 8.94792 15.9333 8.3554 15.8082C7.76289 15.683 7.21951 15.3884 6.79132 14.9602C6.36314 14.532 6.0686 13.9886 5.94353 13.396C5.81847 12.8035 5.86825 12.1874 6.08684 11.6226C6.30543 11.0579 6.6834 10.5688 7.17479 10.2149C7.66619 9.86096 8.24983 9.65744 8.85474 9.62906C9.28903 9.60994 9.72253 9.6814 10.1277 9.83889C10.5329 9.99638 10.9008 10.2365 11.2082 10.5439C11.5156 10.8513 11.7556 11.2193 11.913 11.6244C12.0705 12.0296 12.1419 12.4631 12.1227 12.8974V12.8974Z" fill="#242424"/>
</svg>
