<svg width="19" height="18" viewBox="0 0 19 18" fill="none" xmlns="http://www.w3.org/2000/svg">
<path d="M10.1872 17.9386C10.0954 17.9387 10.0045 17.9203 9.9199 17.8846C9.83529 17.8489 9.75868 17.7967 9.6946 17.7309C9.63052 17.6652 9.58026 17.5872 9.54679 17.5017C9.51332 17.4162 9.49732 17.3249 9.49973 17.2331V9.35046C9.49973 9.25929 9.46351 9.17186 9.39905 9.10739C9.33458 9.04293 9.24715 9.00671 9.15598 9.00671H1.26735C1.12275 9.00842 0.981158 8.96536 0.861996 8.88343C0.742834 8.80151 0.651933 8.68472 0.60176 8.54909C0.544622 8.38735 0.550014 8.21009 0.616875 8.05212C0.683736 7.89415 0.807237 7.76688 0.963128 7.6953L17.4631 0.126358C17.5906 0.0679492 17.7329 0.0499165 17.8709 0.0746785C18.0089 0.0994404 18.1361 0.165813 18.2353 0.264894C18.3345 0.363975 18.4011 0.491027 18.426 0.62901C18.451 0.766992 18.4332 0.909307 18.3749 1.03687L10.8124 17.5369C10.7577 17.6567 10.6696 17.7583 10.5588 17.8295C10.448 17.9007 10.319 17.9386 10.1872 17.9386Z" fill="#242424"/>
</svg>
