<svg width="22" height="22" viewBox="0 0 22 22" fill="none" xmlns="http://www.w3.org/2000/svg">
<path d="M20.9665 13.1043L20.944 13.0862L19.4346 11.9025C19.339 11.8269 19.2628 11.7296 19.212 11.6188C19.1613 11.508 19.1376 11.3867 19.1429 11.265V10.7121C19.1381 10.5911 19.1621 10.4707 19.2129 10.3608C19.2637 10.2509 19.3398 10.1546 19.4351 10.0798L20.944 8.89565L20.9665 8.87748C21.1992 8.68362 21.3554 8.41331 21.4071 8.11488C21.4588 7.81645 21.4026 7.50936 21.2487 7.24852L19.206 3.71417C19.2037 3.71084 19.2016 3.70732 19.1998 3.70365C19.045 3.44643 18.805 3.25153 18.5215 3.15281C18.238 3.05408 17.9289 3.05777 17.6478 3.16322L17.6311 3.16943L15.8568 3.88348C15.7448 3.92876 15.6236 3.94678 15.5033 3.93605C15.383 3.92533 15.2669 3.88616 15.1647 3.82178C15.0078 3.72294 14.8484 3.62952 14.6864 3.54152C14.5814 3.48457 14.4913 3.40374 14.4232 3.30555C14.3552 3.20735 14.3112 3.09455 14.2948 2.97622L14.0274 1.08278L14.0217 1.04835C13.9635 0.755077 13.8061 0.490778 13.576 0.299866C13.3459 0.108955 13.0571 0.00306809 12.7581 0H8.66802C8.36483 0.000970165 8.07171 0.108908 7.8403 0.304798C7.60889 0.500687 7.45404 0.77196 7.40302 1.07083L7.39871 1.09761L7.13232 2.99487C7.11598 3.11286 7.07232 3.2254 7.00482 3.32354C6.93732 3.42168 6.84783 3.50271 6.7435 3.56017C6.57993 3.64817 6.42019 3.74143 6.26524 3.83852C6.16321 3.90251 6.04745 3.94137 5.92748 3.95193C5.80751 3.96249 5.68675 3.94444 5.57511 3.89926L3.79933 3.18187L3.78259 3.17517C3.50111 3.06961 3.19153 3.06606 2.90772 3.16515C2.6239 3.26425 2.3838 3.4597 2.2292 3.71752L2.22298 3.72804L0.177458 7.26478C0.0232809 7.52588 -0.032991 7.83331 0.0187046 8.1321C0.0704002 8.43088 0.226692 8.70153 0.459632 8.89565L0.48211 8.91383L1.9915 10.0975C2.08709 10.1731 2.16337 10.2704 2.21408 10.3812C2.2648 10.492 2.2885 10.6133 2.28324 10.735V11.2879C2.28803 11.4089 2.26404 11.5293 2.21324 11.6392C2.16244 11.7491 2.08628 11.8454 1.99102 11.9202L0.48211 13.1043L0.459632 13.1225C0.226923 13.3164 0.0707578 13.5867 0.0190624 13.8851C-0.0326331 14.1836 0.0235121 14.4906 0.177458 14.7515L2.22011 18.2858C2.22246 18.2892 2.22454 18.2927 2.22633 18.2963C2.3811 18.5536 2.62108 18.7485 2.90458 18.8472C3.18809 18.9459 3.49721 18.9422 3.77828 18.8368L3.79502 18.8306L5.56793 18.1165C5.67992 18.0712 5.80107 18.0532 5.92139 18.0639C6.04171 18.0747 6.15776 18.1138 6.25998 18.1782C6.41685 18.2774 6.57627 18.3708 6.73824 18.4585C6.84325 18.5154 6.93342 18.5963 7.00145 18.6945C7.06949 18.7926 7.1135 18.9055 7.12993 19.0238L7.39585 20.9172L7.40158 20.9517C7.45989 21.2454 7.61768 21.5101 7.84838 21.701C8.07907 21.892 8.36855 21.9976 8.66802 22H12.7581C13.0613 21.999 13.3544 21.8911 13.5858 21.6952C13.8172 21.4993 13.9721 21.228 14.0231 20.9292L14.0274 20.9024L14.2938 19.0051C14.3104 18.8869 14.3544 18.7742 14.4223 18.6761C14.4903 18.5779 14.5802 18.497 14.685 18.4398C14.8486 18.3518 15.0083 18.2586 15.1633 18.1615C15.2653 18.0975 15.3811 18.0586 15.501 18.0481C15.621 18.0375 15.7418 18.0556 15.8534 18.1007L17.6292 18.8157L17.6459 18.8224C17.9274 18.9282 18.237 18.9318 18.5209 18.8327C18.8048 18.7336 19.0448 18.538 19.1993 18.2801C19.2012 18.2765 19.2033 18.273 19.2055 18.2696L21.2482 14.7357C21.4026 14.4746 21.4591 14.1671 21.4075 13.8682C21.3559 13.5693 21.1996 13.2985 20.9665 13.1043V13.1043ZM14.5348 11.1798C14.5 11.9205 14.2507 12.635 13.8173 13.2366C13.3839 13.8382 12.7851 14.3009 12.0936 14.5684C11.4021 14.836 10.6478 14.8968 9.92235 14.7436C9.19691 14.5904 8.53162 14.2297 8.00737 13.7054C7.48312 13.1811 7.12251 12.5157 6.96938 11.7903C6.81625 11.0648 6.87721 10.3105 7.14484 9.61905C7.41247 8.92759 7.87524 8.32879 8.47687 7.89547C9.07851 7.46214 9.79309 7.21296 10.5337 7.17822C11.0654 7.15481 11.5962 7.24229 12.0923 7.43512C12.5883 7.62794 13.0388 7.92188 13.4152 8.29824C13.7915 8.67461 14.0854 9.12516 14.2781 9.62125C14.4709 10.1173 14.5583 10.6481 14.5348 11.1798V11.1798Z" fill="#3F566B"/>
</svg>
