<svg width="45" height="66" viewBox="0 0 45 66" fill="none" xmlns="http://www.w3.org/2000/svg">
<path d="M10.1548 50.6378C10.098 50.0649 9.85417 49.6198 9.4233 49.3026C8.99242 48.9853 8.40767 48.8267 7.66903 48.8267C7.16714 48.8267 6.74337 48.8977 6.39773 49.0398C6.05208 49.1771 5.78693 49.3688 5.60227 49.6151C5.42235 49.8613 5.33239 50.1406 5.33239 50.4531C5.32292 50.7135 5.37737 50.9408 5.49574 51.1349C5.61884 51.3291 5.78693 51.4972 6 51.6392C6.21307 51.7765 6.45928 51.8973 6.73864 52.0014C7.01799 52.1009 7.31629 52.1861 7.63352 52.2571L8.94034 52.5696C9.57481 52.7116 10.1572 52.901 10.6875 53.1378C11.2178 53.3745 11.6771 53.6657 12.0653 54.0114C12.4536 54.357 12.7543 54.7642 12.9673 55.233C13.1851 55.7017 13.2964 56.2391 13.3011 56.8452C13.2964 57.7353 13.0691 58.5071 12.6193 59.1605C12.1742 59.8092 11.5303 60.3134 10.6875 60.6733C9.84943 61.0284 8.83854 61.206 7.65483 61.206C6.48059 61.206 5.45786 61.026 4.58665 60.6662C3.72017 60.3063 3.04309 59.7737 2.5554 59.0682C2.07244 58.358 1.81913 57.4796 1.79545 56.4332H4.77131C4.80445 56.9209 4.94413 57.3281 5.19034 57.6548C5.44129 57.9768 5.77509 58.2206 6.19176 58.3864C6.61316 58.5473 7.08902 58.6278 7.61932 58.6278C8.14015 58.6278 8.59233 58.5521 8.97585 58.4006C9.36411 58.2491 9.66477 58.0384 9.87784 57.7685C10.0909 57.4986 10.1974 57.1884 10.1974 56.8381C10.1974 56.5114 10.1004 56.2367 9.90625 56.0142C9.71686 55.7917 9.4375 55.6023 9.06818 55.446C8.7036 55.2898 8.25616 55.1477 7.72585 55.0199L6.14205 54.6222C4.91572 54.3239 3.94744 53.8575 3.23722 53.223C2.52699 52.5885 2.17424 51.7339 2.17898 50.6591C2.17424 49.7784 2.40862 49.009 2.8821 48.3509C3.36032 47.6927 4.0161 47.179 4.84943 46.8097C5.68277 46.4403 6.62973 46.2557 7.69034 46.2557C8.76989 46.2557 9.71212 46.4403 10.517 46.8097C11.3267 47.179 11.9564 47.6927 12.4062 48.3509C12.8561 49.009 13.0881 49.7713 13.1023 50.6378H10.1548ZM28.9362 53.7273C28.9362 55.3134 28.6355 56.6629 28.0342 57.7756C27.4376 58.8883 26.6232 59.7382 25.591 60.3253C24.5635 60.9077 23.4082 61.1989 22.1251 61.1989C20.8325 61.1989 19.6724 60.9053 18.645 60.3182C17.6175 59.7311 16.8055 58.8812 16.2089 57.7685C15.6123 56.6558 15.314 55.3087 15.314 53.7273C15.314 52.1411 15.6123 50.7917 16.2089 49.679C16.8055 48.5663 17.6175 47.7187 18.645 47.1364C19.6724 46.5492 20.8325 46.2557 22.1251 46.2557C23.4082 46.2557 24.5635 46.5492 25.591 47.1364C26.6232 47.7187 27.4376 48.5663 28.0342 49.679C28.6355 50.7917 28.9362 52.1411 28.9362 53.7273ZM25.8183 53.7273C25.8183 52.6998 25.6644 51.8333 25.3566 51.1278C25.0536 50.4223 24.6251 49.8873 24.0711 49.5227C23.5171 49.1581 22.8684 48.9759 22.1251 48.9759C21.3817 48.9759 20.733 49.1581 20.179 49.5227C19.6251 49.8873 19.1942 50.4223 18.8864 51.1278C18.5834 51.8333 18.4319 52.6998 18.4319 53.7273C18.4319 54.7547 18.5834 55.6212 18.8864 56.3267C19.1942 57.0322 19.6251 57.5672 20.179 57.9318C20.733 58.2964 21.3817 58.4787 22.1251 58.4787C22.8684 58.4787 23.5171 58.2964 24.0711 57.9318C24.6251 57.5672 25.0536 57.0322 25.3566 56.3267C25.6644 55.6212 25.8183 54.7547 25.8183 53.7273ZM39.3048 50.6378C39.248 50.0649 39.0042 49.6198 38.5733 49.3026C38.1424 48.9853 37.5577 48.8267 36.819 48.8267C36.3171 48.8267 35.8934 48.8977 35.5477 49.0398C35.2021 49.1771 34.9369 49.3688 34.7523 49.6151C34.5723 49.8613 34.4824 50.1406 34.4824 50.4531C34.4729 50.7135 34.5274 50.9408 34.6457 51.1349C34.7688 51.3291 34.9369 51.4972 35.15 51.6392C35.3631 51.7765 35.6093 51.8973 35.8886 52.0014C36.168 52.1009 36.4663 52.1861 36.7835 52.2571L38.0903 52.5696C38.7248 52.7116 39.3072 52.901 39.8375 53.1378C40.3678 53.3745 40.8271 53.6657 41.2153 54.0114C41.6036 54.357 41.9043 54.7642 42.1173 55.233C42.3351 55.7017 42.4464 56.2391 42.4511 56.8452C42.4464 57.7353 42.2191 58.5071 41.7693 59.1605C41.3242 59.8092 40.6803 60.3134 39.8375 60.6733C38.9994 61.0284 37.9885 61.206 36.8048 61.206C35.6306 61.206 34.6079 61.026 33.7366 60.6662C32.8702 60.3063 32.1931 59.7737 31.7054 59.0682C31.2224 58.358 30.9691 57.4796 30.9455 56.4332H33.9213C33.9545 56.9209 34.0941 57.3281 34.3403 57.6548C34.5913 57.9768 34.9251 58.2206 35.3418 58.3864C35.7632 58.5473 36.239 58.6278 36.7693 58.6278C37.2902 58.6278 37.7423 58.5521 38.1259 58.4006C38.5141 58.2491 38.8148 58.0384 39.0278 57.7685C39.2409 57.4986 39.3474 57.1884 39.3474 56.8381C39.3474 56.5114 39.2504 56.2367 39.0562 56.0142C38.8669 55.7917 38.5875 55.6023 38.2182 55.446C37.8536 55.2898 37.4062 55.1477 36.8759 55.0199L35.292 54.6222C34.0657 54.3239 33.0974 53.8575 32.3872 53.223C31.677 52.5885 31.3242 51.7339 31.329 50.6591C31.3242 49.7784 31.5586 49.009 32.0321 48.3509C32.5103 47.6927 33.1661 47.179 33.9994 46.8097C34.8328 46.4403 35.7797 46.2557 36.8403 46.2557C37.9199 46.2557 38.8621 46.4403 39.667 46.8097C40.4767 47.179 41.1064 47.6927 41.5562 48.3509C42.0061 49.009 42.2381 49.7713 42.2523 50.6378H39.3048Z" fill="white"/>
<path d="M26.7054 38.3681C25.2529 38.3681 23.2127 37.8455 20.1574 36.1475C16.4422 34.075 13.5685 32.1616 9.87341 28.4954C6.31073 24.9535 4.57701 22.6604 2.15054 18.2681C-0.590671 13.3088 -0.123385 10.7092 0.398964 9.59818C1.02102 8.27027 1.93922 7.47604 3.12604 6.68773C3.80015 6.24838 4.51352 5.87175 5.2571 5.56263C5.33151 5.5308 5.40071 5.50046 5.46247 5.47307C5.83079 5.308 6.38886 5.05856 7.09574 5.32503C7.56749 5.5012 7.98865 5.86167 8.64791 6.50934C9.99991 7.83577 11.8475 10.7899 12.5291 12.2407C12.9867 13.2185 13.2895 13.8639 13.2903 14.5878C13.2903 15.4354 12.8617 16.089 12.3415 16.7944C12.2441 16.9269 12.1473 17.0534 12.0536 17.1763C11.4873 17.9165 11.3631 18.1304 11.4449 18.5124C11.6109 19.2799 12.8483 21.5649 14.8819 23.5834C16.9154 25.602 19.1462 26.7552 19.9208 26.9195C20.3211 27.0046 20.5406 26.8758 21.3085 26.2926C21.4187 26.2089 21.5318 26.1223 21.6501 26.0357C22.4433 25.4487 23.0698 25.0335 23.9017 25.0335H23.9061C24.6301 25.0335 25.25 25.3458 26.2768 25.861C27.6162 26.5331 30.6751 28.3473 32.0167 29.6938C32.6692 30.3481 33.0331 30.7656 33.2109 31.2341C33.4788 31.9395 33.2266 32.4924 33.0621 32.8625C33.0346 32.924 33.0041 32.9913 32.9721 33.0661C32.6589 33.8045 32.278 34.5126 31.8344 35.1816C31.0434 36.3585 30.242 37.2697 28.9042 37.8892C28.2172 38.2125 27.4653 38.3762 26.7054 38.3681Z" fill="white"/>
<path d="M31.9082 20.7422C31.3704 18.3283 29.965 16.1909 27.9585 14.7354C25.9519 13.2799 23.4838 12.6075 21.0222 12.8458C20.8164 12.863 20.6162 12.9208 20.4333 13.016C20.2504 13.1111 20.0885 13.2417 19.9569 13.4001C19.8253 13.5585 19.7267 13.7416 19.6668 13.9388C19.6068 14.1359 19.5868 14.3432 19.6078 14.5485C19.6288 14.7539 19.6905 14.9532 19.7892 15.135C19.8879 15.3167 20.0217 15.4772 20.1828 15.6072C20.3439 15.7372 20.5291 15.8341 20.7277 15.8922C20.9263 15.9504 21.1342 15.9686 21.3395 15.9458C23.0407 15.7813 24.7464 16.246 26.133 17.2519C27.5197 18.2578 28.4911 19.7349 28.8628 21.4031C28.9528 21.8068 29.1995 22.1591 29.5488 22.3825C29.898 22.6059 30.3212 22.6821 30.7251 22.5943C31.1291 22.5065 31.4807 22.2619 31.7028 21.9144C31.9248 21.5668 31.999 21.1447 31.909 20.741L31.9082 20.7422Z" fill="white"/>
<path d="M31.7023 9.57041C28.3097 7.10238 24.1084 6.01444 19.955 6.52841C19.7485 6.54919 19.5485 6.61095 19.3666 6.71006C19.1847 6.80917 19.0247 6.94364 18.8958 7.10557C18.767 7.26751 18.672 7.45366 18.6164 7.65311C18.5607 7.85256 18.5456 8.06128 18.5719 8.26705C18.5981 8.47282 18.6652 8.67149 18.7693 8.8514C18.8733 9.03132 19.0122 9.18886 19.1778 9.31479C19.3434 9.44072 19.5323 9.5325 19.7335 9.58475C19.9347 9.637 20.1441 9.64868 20.3495 9.61908C23.7178 9.20743 27.1234 10.0896 29.8769 12.0869C32.6305 14.0843 34.5263 17.0477 35.1808 20.3774C35.2164 20.5818 35.2925 20.7772 35.4047 20.9523C35.5168 21.1273 35.6627 21.2784 35.8338 21.3967C36.0049 21.515 36.1978 21.5981 36.4011 21.6411C36.6045 21.6842 36.8142 21.6863 37.0179 21.6474C37.2217 21.6084 37.4154 21.5293 37.5877 21.4145C37.76 21.2996 37.9075 21.1515 38.0214 20.9788C38.1353 20.8061 38.2135 20.6122 38.2512 20.4085C38.289 20.2049 38.2856 19.9955 38.2412 19.7928C37.4403 15.685 35.1017 12.0291 31.7023 9.57041Z" fill="white"/>
<path d="M44.4357 18.087C43.2211 12.5866 40.0241 7.71458 35.4539 4.39947C30.8837 1.08435 25.2598 -0.442094 19.6542 0.111036C19.447 0.126975 19.2453 0.184106 19.061 0.279075C18.8767 0.374043 18.7134 0.504933 18.5807 0.664051C18.4481 0.82317 18.3488 1.00731 18.2887 1.20565C18.2285 1.40399 18.2087 1.61252 18.2305 1.819C18.2523 2.02549 18.3151 2.22575 18.4154 2.40803C18.5157 2.5903 18.6513 2.75091 18.8144 2.88042C18.9774 3.00993 19.1646 3.10572 19.3649 3.16218C19.5652 3.21863 19.7746 3.2346 19.9807 3.20915C24.8231 2.73239 29.6808 4.05146 33.6286 6.9151C37.5764 9.77875 40.3385 13.9869 41.3887 18.738C41.4774 19.1418 41.723 19.4948 42.0715 19.7192C42.4199 19.9436 42.8427 20.021 43.2468 19.9345C43.6509 19.8479 44.0032 19.6045 44.2262 19.2577C44.4492 18.9109 44.5247 18.4892 44.436 18.0853L44.4357 18.087Z" fill="white"/>
</svg>
