<svg width="52" height="66" viewBox="0 0 52 66" fill="none" xmlns="http://www.w3.org/2000/svg">
<path d="M11.6114 28.9607C11.5439 28.281 11.2547 27.753 10.7435 27.3766C10.2323 27.0003 9.5386 26.8121 8.66232 26.8121C8.0669 26.8121 7.56416 26.8963 7.1541 27.0648C6.74404 27.2277 6.42948 27.4552 6.21041 27.7473C5.99696 28.0394 5.89023 28.3708 5.89023 28.7416C5.879 29.0505 5.94359 29.3202 6.08402 29.5505C6.23007 29.7808 6.42948 29.9802 6.68226 30.1487C6.93503 30.3116 7.22712 30.4548 7.55854 30.5784C7.88995 30.6964 8.24384 30.7975 8.62019 30.8817L10.1705 31.2525C10.9232 31.421 11.6142 31.6457 12.2433 31.9265C12.8724 32.2074 13.4173 32.5529 13.8779 32.9629C14.3385 33.373 14.6952 33.856 14.948 34.4122C15.2064 34.9683 15.3384 35.6058 15.344 36.3248C15.3384 37.3808 15.0687 38.2964 14.5351 39.0716C14.0071 39.8412 13.2431 40.4394 12.2433 40.8663C11.249 41.2876 10.0498 41.4983 8.64547 41.4983C7.2524 41.4983 6.03909 41.2848 5.00552 40.8579C3.97757 40.431 3.17431 39.7991 2.59574 38.9621C2.02278 38.1195 1.72226 37.0775 1.69418 35.8361H5.22459C5.26391 36.4147 5.42962 36.8978 5.72171 37.2854C6.01943 37.6673 6.41544 37.9566 6.90975 38.1532C7.40968 38.3442 7.97421 38.4397 8.60334 38.4397C9.22123 38.4397 9.75767 38.3498 10.2127 38.1701C10.6733 37.9903 11.03 37.7403 11.2827 37.4202C11.5355 37.1 11.6619 36.7321 11.6619 36.3164C11.6619 35.9288 11.5468 35.603 11.3164 35.339C11.0918 35.075 10.7603 34.8503 10.3222 34.6649C9.88968 34.4796 9.35885 34.311 8.72973 34.1594L6.85077 33.6875C5.39592 33.3336 4.2472 32.7804 3.40462 32.0276C2.56204 31.2749 2.14355 30.261 2.14917 28.9859C2.14355 27.9411 2.42161 27.0283 2.98333 26.2475C3.55066 25.4668 4.32865 24.8573 5.31727 24.4191C6.3059 23.981 7.42934 23.7619 8.6876 23.7619C9.96832 23.7619 11.0861 23.981 12.0411 24.4191C13.0016 24.8573 13.7487 25.4668 14.2823 26.2475C14.816 27.0283 15.0912 27.9327 15.1081 28.9607H11.6114ZM33.8926 32.6259C33.8926 34.5076 33.5359 36.1085 32.8226 37.4286C32.1148 38.7486 31.1486 39.7569 29.9241 40.4535C28.7051 41.1444 27.3346 41.4898 25.8123 41.4898C24.2788 41.4898 22.9026 41.1416 21.6836 40.445C20.4647 39.7485 19.5014 38.7402 18.7936 37.4202C18.0858 36.1001 17.7319 34.502 17.7319 32.6259C17.7319 30.7441 18.0858 29.1432 18.7936 27.8232C19.5014 26.5031 20.4647 25.4976 21.6836 24.8067C22.9026 24.1102 24.2788 23.7619 25.8123 23.7619C27.3346 23.7619 28.7051 24.1102 29.9241 24.8067C31.1486 25.4976 32.1148 26.5031 32.8226 27.8232C33.5359 29.1432 33.8926 30.7441 33.8926 32.6259ZM30.1937 32.6259C30.1937 31.4069 30.0111 30.379 29.646 29.542C29.2865 28.7051 28.7782 28.0703 28.121 27.6378C27.4637 27.2053 26.6942 26.989 25.8123 26.989C24.9304 26.989 24.1608 27.2053 23.5036 27.6378C22.8464 28.0703 22.3352 28.7051 21.9701 29.542C21.6106 30.379 21.4309 31.4069 21.4309 32.6259C21.4309 33.8448 21.6106 34.8728 21.9701 35.7097C22.3352 36.5467 22.8464 37.1814 23.5036 37.614C24.1608 38.0465 24.9304 38.2627 25.8123 38.2627C26.6942 38.2627 27.4637 38.0465 28.121 37.614C28.7782 37.1814 29.2865 36.5467 29.646 35.7097C30.0111 34.8728 30.1937 33.8448 30.1937 32.6259ZM46.1936 28.9607C46.1261 28.281 45.8369 27.753 45.3257 27.3766C44.8145 27.0003 44.1208 26.8121 43.2445 26.8121C42.6491 26.8121 42.1464 26.8963 41.7363 27.0648C41.3262 27.2277 41.0117 27.4552 40.7926 27.7473C40.5792 28.0394 40.4724 28.3708 40.4724 28.7416C40.4612 29.0505 40.5258 29.3202 40.6662 29.5505C40.8123 29.7808 41.0117 29.9802 41.2645 30.1487C41.5172 30.3116 41.8093 30.4548 42.1407 30.5784C42.4722 30.6964 42.826 30.7975 43.2024 30.8817L44.7527 31.2525C45.5054 31.421 46.1964 31.6457 46.8255 31.9265C47.4546 32.2074 47.9995 32.5529 48.4601 32.9629C48.9207 33.373 49.2774 33.856 49.5302 34.4122C49.7886 34.9683 49.9206 35.6058 49.9262 36.3248C49.9206 37.3808 49.6509 38.2964 49.1173 39.0716C48.5893 39.8412 47.8253 40.4394 46.8255 40.8663C45.8312 41.2876 44.632 41.4983 43.2277 41.4983C41.8346 41.4983 40.6213 41.2848 39.5877 40.8579C38.5598 40.431 37.7565 39.7991 37.1779 38.9621C36.605 38.1195 36.3045 37.0775 36.2764 35.8361H39.8068C39.8461 36.4147 40.0118 36.8978 40.3039 37.2854C40.6016 37.6673 40.9976 37.9566 41.492 38.1532C41.9919 38.3442 42.5564 38.4397 43.1855 38.4397C43.8034 38.4397 44.3399 38.3498 44.7949 38.1701C45.2555 37.9903 45.6122 37.7403 45.8649 37.4202C46.1177 37.1 46.2441 36.7321 46.2441 36.3164C46.2441 35.9288 46.129 35.603 45.8986 35.339C45.674 35.075 45.3425 34.8503 44.9044 34.6649C44.4719 34.4796 43.9411 34.311 43.3119 34.1594L41.433 33.6875C39.9781 33.3336 38.8294 32.7804 37.9868 32.0276C37.1442 31.2749 36.7258 30.261 36.7314 28.9859C36.7258 27.9411 37.0038 27.0283 37.5655 26.2475C38.1329 25.4668 38.9108 24.8573 39.8995 24.4191C40.8881 23.981 42.0115 23.7619 43.2698 23.7619C44.5505 23.7619 45.6683 23.981 46.6233 24.4191C47.5838 24.8573 48.3309 25.4668 48.8645 26.2475C49.3982 27.0283 49.6734 27.9327 49.6903 28.9607H46.1936Z" fill="white"/>
<path d="M31.0798 18.1091C29.7152 16.8945 27.95 16.2203 26.119 16.2143C24.288 16.2083 22.5185 16.871 21.146 18.0766C21.0301 18.1758 20.9351 18.2969 20.8665 18.4329C20.798 18.5689 20.7573 18.717 20.7469 18.8688C20.7364 19.0206 20.7563 19.1729 20.8055 19.3169C20.8547 19.461 20.9322 19.5938 21.0335 19.7078C21.1347 19.8218 21.2578 19.9147 21.3954 19.981C21.533 20.0473 21.6825 20.0857 21.8352 20.0941C21.9879 20.1025 22.1407 20.0805 22.2848 20.0296C22.4289 19.9787 22.5614 19.8999 22.6746 19.7976C23.6232 18.9645 24.8461 18.5066 26.1115 18.5107C27.3769 18.5149 28.5968 18.9807 29.5399 19.8201C29.7681 20.0232 30.0681 20.1278 30.3739 20.1109C30.6797 20.094 30.9662 19.957 31.1704 19.73C31.3746 19.5029 31.4797 19.2045 31.4628 18.9003C31.4458 18.5962 31.308 18.3112 31.0798 18.108L31.0798 18.1091Z" fill="white"/>
<path d="M26.1328 11.5023C23.0339 11.4879 20.0462 12.6498 17.7788 14.7511C17.664 14.8528 17.5708 14.9761 17.5045 15.1141C17.4383 15.252 17.4005 15.4017 17.3932 15.5544C17.3859 15.7071 17.4093 15.8596 17.4621 16.0032C17.5149 16.1468 17.5959 16.2784 17.7005 16.3904C17.8051 16.5024 17.9311 16.5924 18.0711 16.6553C18.2112 16.7183 18.3624 16.7527 18.516 16.7567C18.6696 16.7607 18.8225 16.7341 18.9656 16.6786C19.1088 16.623 19.2393 16.5396 19.3496 16.4332C21.1907 14.7322 23.6126 13.7904 26.1253 13.7987C28.638 13.8069 31.0538 14.7644 32.8837 16.4775C32.9933 16.5846 33.1233 16.6689 33.266 16.7253C33.4088 16.7818 33.5615 16.8094 33.7151 16.8064C33.8688 16.8034 34.0202 16.77 34.1607 16.708C34.3011 16.646 34.4277 16.5567 34.533 16.4454C34.6384 16.3341 34.7203 16.203 34.774 16.0598C34.8277 15.9166 34.8521 15.7642 34.8458 15.6114C34.8395 15.4587 34.8026 15.3088 34.7373 15.1704C34.672 15.0321 34.5796 14.9081 34.4655 14.8057C32.2119 12.6896 29.2318 11.5082 26.1328 11.5023Z" fill="white"/>
<path d="M37.4416 11.1088C34.3388 8.33663 30.3191 6.79701 26.1487 6.78337C21.9782 6.76973 17.9486 8.28303 14.8277 11.0349C14.7104 11.1339 14.6142 11.2552 14.5447 11.3917C14.4753 11.5282 14.4339 11.6771 14.4231 11.8298C14.4123 11.9824 14.4323 12.1356 14.4819 12.2805C14.5315 12.4253 14.6097 12.5588 14.7119 12.6732C14.8141 12.7875 14.9382 12.8804 15.077 12.9464C15.2158 13.0123 15.3664 13.05 15.5201 13.0572C15.6737 13.0645 15.8273 13.0411 15.9717 12.9884C16.1161 12.9358 16.2485 12.8549 16.3611 12.7507C19.0574 10.3742 22.5384 9.06738 26.1409 9.07916C29.7434 9.09094 33.2157 10.4205 35.8965 12.8146C36.124 13.0183 36.4236 13.1238 36.7293 13.1078C37.035 13.0919 37.3219 12.9557 37.5267 12.7294C37.7315 12.5031 37.8376 12.205 37.8215 11.9009C37.8054 11.5968 37.6686 11.3115 37.441 11.1077L37.4416 11.1088Z" fill="white"/>
<path d="M31.0798 18.1091C29.7152 16.8945 27.95 16.2203 26.119 16.2143C24.288 16.2083 22.5185 16.871 21.146 18.0766C21.0301 18.1758 20.9351 18.2969 20.8665 18.4329C20.798 18.5689 20.7573 18.717 20.7469 18.8688C20.7364 19.0206 20.7563 19.1729 20.8055 19.3169C20.8547 19.461 20.9322 19.5938 21.0335 19.7078C21.1347 19.8218 21.2578 19.9147 21.3954 19.981C21.533 20.0473 21.6825 20.0857 21.8352 20.0941C21.9879 20.1025 22.1407 20.0805 22.2848 20.0296C22.4289 19.9787 22.5614 19.8999 22.6746 19.7976C23.6232 18.9645 24.8461 18.5066 26.1115 18.5107C27.3769 18.5149 28.5968 18.9807 29.5399 19.8201C29.7681 20.0232 30.0681 20.1278 30.3739 20.1109C30.6797 20.094 30.9662 19.957 31.1704 19.73C31.3746 19.5029 31.4797 19.2045 31.4628 18.9003C31.4458 18.5962 31.308 18.3112 31.0798 18.108L31.0798 18.1091Z" fill="white"/>
<path d="M26.1328 11.5023C23.0339 11.4879 20.0462 12.6498 17.7788 14.7511C17.664 14.8528 17.5708 14.9761 17.5045 15.1141C17.4383 15.252 17.4005 15.4017 17.3932 15.5544C17.3859 15.7071 17.4093 15.8596 17.4621 16.0032C17.5149 16.1468 17.5959 16.2784 17.7005 16.3904C17.8051 16.5024 17.9311 16.5924 18.0711 16.6553C18.2112 16.7183 18.3624 16.7527 18.516 16.7567C18.6696 16.7607 18.8225 16.7341 18.9656 16.6786C19.1088 16.623 19.2393 16.5396 19.3496 16.4332C21.1907 14.7322 23.6126 13.7904 26.1253 13.7987C28.638 13.8069 31.0538 14.7644 32.8837 16.4775C32.9933 16.5846 33.1233 16.6689 33.266 16.7253C33.4088 16.7818 33.5615 16.8094 33.7151 16.8064C33.8688 16.8034 34.0202 16.77 34.1607 16.708C34.3011 16.646 34.4277 16.5567 34.533 16.4454C34.6384 16.3341 34.7203 16.203 34.774 16.0598C34.8277 15.9166 34.8521 15.7642 34.8458 15.6114C34.8395 15.4587 34.8026 15.3088 34.7373 15.1704C34.672 15.0321 34.5796 14.9081 34.4655 14.8057C32.2119 12.6896 29.2318 11.5082 26.1328 11.5023Z" fill="white"/>
<path d="M37.4416 11.1088C34.3388 8.33663 30.3191 6.79701 26.1487 6.78337C21.9782 6.76973 17.9486 8.28303 14.8277 11.0349C14.7104 11.1339 14.6142 11.2552 14.5447 11.3917C14.4753 11.5282 14.4339 11.6771 14.4231 11.8298C14.4123 11.9824 14.4323 12.1356 14.4819 12.2805C14.5315 12.4253 14.6097 12.5588 14.7119 12.6732C14.8141 12.7875 14.9382 12.8804 15.077 12.9464C15.2158 13.0123 15.3664 13.05 15.5201 13.0572C15.6737 13.0645 15.8273 13.0411 15.9717 12.9884C16.1161 12.9358 16.2485 12.8549 16.3611 12.7507C19.0574 10.3742 22.5384 9.06738 26.1409 9.07916C29.7434 9.09094 33.2157 10.4205 35.8965 12.8146C36.124 13.0183 36.4236 13.1238 36.7293 13.1078C37.035 13.0919 37.3219 12.9557 37.5267 12.7294C37.7315 12.5031 37.8376 12.205 37.8215 11.9009C37.8054 11.5968 37.6686 11.3115 37.441 11.1077L37.4416 11.1088Z" fill="white"/>
<path d="M20.9032 47.3203C22.2136 48.5931 23.9478 49.3435 25.7768 49.4292C27.6058 49.5148 29.4025 48.9298 30.8261 47.785C30.9463 47.691 31.0465 47.5741 31.1208 47.4413C31.1952 47.3084 31.2423 47.1621 31.2594 47.0109C31.2764 46.8598 31.2631 46.7067 31.2202 46.5607C31.1774 46.4147 31.1057 46.2785 31.0095 46.1602C30.9133 46.0419 30.7945 45.9438 30.6599 45.8716C30.5252 45.7994 30.3776 45.7544 30.2254 45.7395C30.0732 45.7245 29.9195 45.7397 29.7734 45.7843C29.6272 45.8289 29.4914 45.9019 29.3738 45.9991C28.3899 46.7902 27.1482 47.1945 25.8842 47.1353C24.6202 47.0761 23.4217 46.5576 22.516 45.678C22.2969 45.4651 22.0017 45.3476 21.6955 45.3511C21.3893 45.3547 21.0971 45.4791 20.8832 45.6971C20.6693 45.915 20.5513 46.2086 20.555 46.5132C20.5587 46.8178 20.684 47.1085 20.9032 47.3214L20.9032 47.3203Z" fill="white"/>
<path d="M25.558 54.1361C28.6533 54.2854 31.6888 53.2545 34.0455 51.2538C34.1646 51.1573 34.2631 51.0381 34.3352 50.9032C34.4074 50.7683 34.4517 50.6204 34.4657 50.4682C34.4796 50.3159 34.4628 50.1625 34.4164 50.0168C34.3699 49.871 34.2946 49.736 34.195 49.6196C34.0954 49.5032 33.9734 49.4077 33.8363 49.3387C33.6991 49.2698 33.5495 49.2288 33.3962 49.2181C33.2429 49.2074 33.089 49.2273 32.9436 49.2766C32.7982 49.3259 32.6641 49.4035 32.5493 49.505C30.636 51.1244 28.1753 51.9598 25.6654 51.8423C23.1554 51.7247 20.7836 50.663 19.03 48.872C18.9252 48.7602 18.799 48.6703 18.6588 48.6077C18.5186 48.545 18.3673 48.5108 18.2136 48.5071C18.06 48.5034 17.9072 48.5303 17.7642 48.5861C17.6212 48.6419 17.4909 48.7256 17.3808 48.8322C17.2707 48.9388 17.1832 49.0662 17.1233 49.207C17.0634 49.3477 17.0324 49.4989 17.032 49.6518C17.0317 49.8046 17.062 49.956 17.1212 50.0971C17.1805 50.2382 17.2674 50.3661 17.377 50.4733C19.5364 52.6855 22.4622 53.9954 25.558 54.1361Z" fill="white"/>
<path d="M14.2428 54.0372C17.2221 56.9418 21.1709 58.6548 25.3368 58.8499C29.5027 59.045 33.5944 57.7084 36.8321 55.095C36.9535 55.0012 37.0549 54.8842 37.1303 54.7509C37.2056 54.6175 37.2534 54.4705 37.2708 54.3185C37.2883 54.1665 37.275 54.0125 37.2317 53.8656C37.1885 53.7188 37.1162 53.582 37.0191 53.4633C36.9219 53.3446 36.802 53.2464 36.6662 53.1745C36.5304 53.1025 36.3815 53.0583 36.2283 53.0444C36.0752 53.0305 35.9207 53.0472 35.7742 53.0935C35.6276 53.1398 35.4918 53.2148 35.3748 53.3141C32.5776 55.571 29.0431 56.7251 25.4445 56.5566C21.8459 56.3881 18.4348 54.9087 15.8607 52.4003C15.6422 52.1868 15.3475 52.0684 15.0414 52.071C14.7353 52.0737 14.4428 52.1972 14.2283 52.4144C14.0138 52.6317 13.8949 52.9248 13.8977 53.2293C13.9006 53.5338 14.0249 53.8249 14.2433 54.0383L14.2428 54.0372Z" fill="white"/>
<path d="M20.9032 47.3203C22.2136 48.5931 23.9478 49.3435 25.7768 49.4292C27.6058 49.5148 29.4025 48.9298 30.8261 47.785C30.9463 47.691 31.0465 47.5741 31.1208 47.4413C31.1952 47.3084 31.2423 47.1621 31.2594 47.0109C31.2764 46.8598 31.2631 46.7067 31.2202 46.5607C31.1774 46.4147 31.1057 46.2785 31.0095 46.1602C30.9133 46.0419 30.7945 45.9438 30.6599 45.8716C30.5252 45.7994 30.3776 45.7544 30.2254 45.7395C30.0732 45.7245 29.9195 45.7397 29.7734 45.7843C29.6272 45.8289 29.4914 45.9019 29.3738 45.9991C28.3899 46.7902 27.1482 47.1945 25.8842 47.1353C24.6202 47.0761 23.4217 46.5576 22.516 45.678C22.2969 45.4651 22.0017 45.3476 21.6955 45.3511C21.3893 45.3547 21.0971 45.4791 20.8832 45.6971C20.6693 45.915 20.5513 46.2086 20.555 46.5132C20.5587 46.8178 20.684 47.1085 20.9032 47.3214L20.9032 47.3203Z" fill="white"/>
<path d="M25.558 54.1361C28.6533 54.2854 31.6888 53.2545 34.0455 51.2538C34.1646 51.1573 34.2631 51.0381 34.3352 50.9032C34.4074 50.7683 34.4517 50.6204 34.4657 50.4682C34.4796 50.3159 34.4628 50.1625 34.4164 50.0168C34.3699 49.871 34.2946 49.736 34.195 49.6196C34.0954 49.5032 33.9734 49.4077 33.8363 49.3387C33.6991 49.2698 33.5495 49.2288 33.3962 49.2181C33.2429 49.2074 33.089 49.2273 32.9436 49.2766C32.7982 49.3259 32.6641 49.4035 32.5493 49.505C30.636 51.1244 28.1753 51.9598 25.6654 51.8423C23.1554 51.7247 20.7836 50.663 19.03 48.872C18.9252 48.7602 18.799 48.6703 18.6588 48.6077C18.5186 48.545 18.3673 48.5108 18.2136 48.5071C18.06 48.5034 17.9072 48.5303 17.7642 48.5861C17.6212 48.6419 17.4909 48.7256 17.3808 48.8322C17.2707 48.9388 17.1832 49.0662 17.1233 49.207C17.0634 49.3477 17.0324 49.4989 17.032 49.6518C17.0317 49.8046 17.062 49.956 17.1212 50.0971C17.1805 50.2382 17.2674 50.3661 17.377 50.4733C19.5364 52.6855 22.4622 53.9954 25.558 54.1361Z" fill="white"/>
<path d="M14.2428 54.0372C17.2221 56.9418 21.1709 58.6548 25.3368 58.8499C29.5027 59.045 33.5944 57.7084 36.8321 55.095C36.9535 55.0012 37.0549 54.8842 37.1303 54.7509C37.2056 54.6175 37.2534 54.4705 37.2708 54.3185C37.2883 54.1665 37.275 54.0125 37.2317 53.8656C37.1885 53.7188 37.1162 53.582 37.0191 53.4633C36.9219 53.3446 36.802 53.2464 36.6662 53.1745C36.5304 53.1025 36.3815 53.0583 36.2283 53.0444C36.0752 53.0305 35.9207 53.0472 35.7742 53.0935C35.6276 53.1398 35.4918 53.2148 35.3748 53.3141C32.5776 55.571 29.0431 56.7251 25.4445 56.5566C21.8459 56.3881 18.4348 54.9087 15.8607 52.4003C15.6422 52.1868 15.3475 52.0684 15.0414 52.071C14.7353 52.0737 14.4428 52.1972 14.2283 52.4144C14.0138 52.6317 13.8949 52.9248 13.8977 53.2293C13.9006 53.5338 14.0249 53.8249 14.2433 54.0383L14.2428 54.0372Z" fill="white"/>
</svg>
