<svg width="20" height="20" viewBox="0 0 20 20" fill="none" xmlns="http://www.w3.org/2000/svg">
<path d="M19.324 0.680138C19.1834 0.53958 19.0052 0.442654 18.8108 0.401031C18.6164 0.359407 18.4141 0.37486 18.2283 0.445529L1.03951 6.95143H1.03608C0.837887 7.02765 0.668061 7.1632 0.549791 7.33956C0.431521 7.51591 0.370575 7.72448 0.375276 7.93677C0.379977 8.14906 0.450096 8.35472 0.576056 8.52567C0.702016 8.69662 0.877676 8.82452 1.07904 8.8919L1.09666 8.89748L6.99627 11.4167C7.11134 11.4517 7.23356 11.4558 7.35073 11.4287C7.4679 11.4017 7.57592 11.3443 7.66401 11.2625L17.1326 2.43971C17.1608 2.41149 17.1943 2.38911 17.2312 2.37385C17.268 2.35858 17.3075 2.35072 17.3474 2.35072C17.3873 2.35072 17.4269 2.35858 17.4637 2.37385C17.5006 2.38911 17.5341 2.41149 17.5623 2.43971C17.5905 2.46792 17.6129 2.50142 17.6281 2.53828C17.6434 2.57514 17.6513 2.61465 17.6513 2.65455C17.6513 2.69445 17.6434 2.73396 17.6281 2.77082C17.6129 2.80769 17.5905 2.84118 17.5623 2.8694L8.73908 12.3337C8.65722 12.4218 8.59989 12.5298 8.57282 12.647C8.54575 12.7641 8.54989 12.8864 8.58483 13.0014L11.1049 18.9045C11.1075 18.9131 11.1101 18.9208 11.1131 18.929C11.2506 19.3273 11.5987 19.6083 12.0193 19.6272C12.0378 19.6272 12.0442 19.6272 12.0623 19.6272C12.2747 19.6284 12.4825 19.5657 12.6587 19.4472C12.835 19.3288 12.9715 19.16 13.0506 18.9629L19.5556 1.77885C19.6273 1.59291 19.6436 1.3902 19.6025 1.19521C19.5614 1.00022 19.4646 0.821319 19.324 0.680138V0.680138Z" fill="#3F566B"/>
</svg>
