<svg width="16" height="16" viewBox="0 0 16 16" fill="none" xmlns="http://www.w3.org/2000/svg">
<path d="M2.00029 5.00131L2.92966 13.8298C2.94905 14.0141 3.036 14.1847 3.17374 14.3087C3.31148 14.4327 3.49026 14.5013 3.6756 14.5013H12.325C12.5103 14.5013 12.6891 14.4327 12.8268 14.3087C12.9646 14.1847 13.0515 14.0141 13.0709 13.8298L14.0003 5.00131H2.00029ZM9.75029 11.7969L8.00029 10.0469L6.25029 11.7969L5.45466 11.0013L7.20466 9.25132L5.45466 7.50131L6.25029 6.70569L8.00029 8.45569L9.75029 6.70569L10.5459 7.50131L8.79591 9.25132L10.5459 11.0013L9.75029 11.7969Z" fill="#3F566B"/>
<path d="M14.6246 1.50073H1.3746C1.1675 1.50073 0.999603 1.66863 0.999603 1.87573V3.62573C0.999603 3.83284 1.1675 4.00073 1.3746 4.00073H14.6246C14.8317 4.00073 14.9996 3.83284 14.9996 3.62573V1.87573C14.9996 1.66863 14.8317 1.50073 14.6246 1.50073Z" fill="#3F566B"/>
</svg>
