<svg width="22" height="18" viewBox="0 0 22 18" fill="none" xmlns="http://www.w3.org/2000/svg">
<path d="M22 2.07692C21.175 2.49231 20.35 2.63077 19.3875 2.76923C20.35 2.21538 21.0375 1.38462 21.3125 0.276923C20.4875 0.830769 19.525 1.10769 18.425 1.38462C17.6 0.553846 16.3625 0 15.125 0C12.2375 0 10.0375 2.76923 10.725 5.53846C7.0125 5.4 3.7125 3.6 1.375 0.83077C0.1375 2.90769 0.825 5.53846 2.75 6.92308C2.0625 6.92308 1.375 6.64615 0.6875 6.36923C0.6875 8.44615 2.2 10.3846 4.2625 10.9385C3.575 11.0769 2.8875 11.2154 2.2 11.0769C2.75 12.8769 4.4 14.2615 6.4625 14.2615C4.8125 15.5077 2.3375 16.2 0 15.9231C2.0625 17.1692 4.4 18 6.875 18C15.2625 18 19.9375 10.9385 19.6625 4.43077C20.625 3.87692 21.45 3.04615 22 2.07692Z" fill="white"/>
</svg>
