<svg width="22" height="22" viewBox="0 0 22 22" fill="none" xmlns="http://www.w3.org/2000/svg">
<path d="M11.1244 2.06223C6.09792 1.99434 1.9944 6.09786 2.06229 11.1243C2.12932 15.945 6.05452 19.8702 10.8752 19.9372C15.9025 20.006 20.0052 15.9025 19.9364 10.876C19.8703 6.05446 15.9451 2.12926 11.1244 2.06223ZM16.5565 16.1238C16.5394 16.1423 16.5184 16.1568 16.4951 16.1663C16.4717 16.1758 16.4466 16.18 16.4214 16.1787C16.3962 16.1774 16.3716 16.1706 16.3494 16.1587C16.3271 16.1468 16.3078 16.1302 16.2927 16.11C15.9083 15.6072 15.4377 15.1766 14.9026 14.8386C13.8087 14.1365 12.4225 13.7497 10.9998 13.7497C9.5771 13.7497 8.19092 14.1365 7.09694 14.8386C6.56192 15.1765 6.09125 15.6069 5.7069 16.1096C5.6918 16.1298 5.67245 16.1464 5.65021 16.1583C5.62797 16.1701 5.60339 16.177 5.57821 16.1783C5.55303 16.1796 5.52788 16.1753 5.50452 16.1659C5.48117 16.1564 5.46019 16.1418 5.44307 16.1233C4.18223 14.7622 3.46801 12.9837 3.43729 11.1286C3.36725 6.94735 6.79831 3.44754 10.9813 3.43723C15.1643 3.42692 18.5623 6.8236 18.5623 10.9997C18.5637 12.8996 17.8473 14.7298 16.5565 16.1238V16.1238Z" fill="#42B2E9"/>
<path d="M10.9999 6.18854C10.1524 6.18854 9.38617 6.50612 8.84167 7.08327C8.29718 7.66043 8.02515 8.45847 8.08661 9.31496C8.21123 11.0017 9.5181 12.3769 10.9999 12.3769C12.4816 12.3769 13.7859 11.0017 13.9131 9.31539C13.9767 8.46707 13.7069 7.67633 13.1533 7.08843C12.6067 6.50827 11.8418 6.18854 10.9999 6.18854Z" fill="#42B2E9"/>
</svg>
