<svg width="20" height="15" viewBox="0 0 20 15" fill="none" xmlns="http://www.w3.org/2000/svg">
<path d="M10.8891 14.2857C4.05594 14.2857 0.15984 8.93286 0 0.011438H3.43656C3.54645 6.55381 6.06394 9.32174 8.06194 9.89363V0.011438H11.2887V5.65023C13.2567 5.41004 15.3347 2.83655 16.034 0H19.2507C18.9885 1.46834 18.4645 2.85897 17.7116 4.08502C16.9588 5.31106 15.9932 6.34618 14.8751 7.1257C16.1228 7.8367 17.2247 8.84245 18.1081 10.0766C18.9914 11.3108 19.6363 12.7454 20 14.2857H16.4535C15.6943 11.575 13.7962 9.47043 11.2887 9.18449V14.2857H10.8991H10.8891Z" fill="white"/>
</svg>
