<svg width="23" height="23" viewBox="0 0 23 23" fill="none" xmlns="http://www.w3.org/2000/svg">
<path fill-rule="evenodd" clip-rule="evenodd" d="M19.5712 3.28652C17.4283 1.14366 14.5711 0.000801086 11.5711 0.000801086C5.28543 0.000801086 0.142578 5.14366 0.142578 11.4294C0.142578 13.4294 0.714015 15.4294 1.71402 17.1437L0.142578 22.8579L6.1426 21.2865C7.85688 22.1437 9.71401 22.7151 11.5711 22.7151C17.8569 22.7151 22.9997 17.5722 22.9997 11.2865C22.9997 8.28651 21.714 5.42937 19.5712 3.28652ZM11.5711 20.8579C9.85686 20.8579 8.14259 20.4294 6.71402 19.5722L6.42828 19.4294L2.85685 20.4294L3.85687 17.0008L3.57114 16.5722C2.57114 15.0008 2.14257 13.2865 2.14257 11.5722C2.14257 6.42937 6.42829 2.14366 11.5711 2.14366C14.1426 2.14366 16.4283 3.14366 18.2855 4.85794C20.1426 6.71509 20.9997 9.0008 20.9997 11.5722C20.9997 16.5722 16.8569 20.8579 11.5711 20.8579ZM16.714 13.7151C16.4283 13.5722 14.9997 12.8579 14.714 12.8579C14.4283 12.7151 14.2854 12.7151 14.1426 13.0008C13.9997 13.2865 13.4283 13.8579 13.2855 14.1437C13.1426 14.2865 12.9997 14.2865 12.714 14.2865C12.4283 14.1437 11.5712 13.8579 10.4283 12.8579C9.57117 12.1437 8.99973 11.1437 8.85687 10.8579C8.71401 10.5722 8.85688 10.4294 8.99974 10.2865C9.1426 10.1437 9.28543 10.0008 9.42829 9.85794C9.57115 9.71509 9.57117 9.57223 9.71402 9.42937C9.85688 9.28652 9.71402 9.14366 9.71402 9.0008C9.71402 8.85794 9.14259 7.42937 8.85687 6.85794C8.71401 6.42937 8.42831 6.42937 8.28545 6.42937C8.1426 6.42937 7.9997 6.42937 7.71399 6.42937C7.57113 6.42937 7.28542 6.42937 6.9997 6.71509C6.71399 7.0008 5.99973 7.71509 5.99973 9.14366C5.99973 10.5722 6.99971 11.8579 7.14257 12.1437C7.28543 12.2865 9.14256 15.2865 11.9997 16.4294C14.4283 17.4294 14.8569 17.1437 15.4283 17.1437C15.9997 17.1437 17.1426 16.4294 17.2854 15.8579C17.5711 15.1437 17.5712 14.5722 17.4283 14.5722C17.2854 13.8579 16.9997 13.8579 16.714 13.7151Z" fill="white"/>
</svg>
