<svg width="509" height="337" viewBox="0 0 509 337" fill="none" xmlns="http://www.w3.org/2000/svg">
<path d="M116.744 68.4677C116.744 68.4677 162.202 102.965 231.311 38.4617C292.685 -18.8215 342.8 71.5587 343.149 114.841C343.604 170.907 281.775 215.768 311.781 252.593C341.785 289.419 252.274 350.23 204.033 297.602C144.021 232.135 127.763 285.328 93.5572 285.328C69.007 285.328 18.6031 224.325 52.6403 178.942C81.2823 140.754 65.6614 128.08 58.0969 114.841C47.1848 95.7457 73.0988 43.9177 116.744 68.4677Z" fill="white"/>
<path d="M299.244 144.7C301.688 145.609 304.357 145.669 306.898 145.085C317.542 142.643 354.142 136.173 347.783 164.535C346.397 170.161 324.963 201.675 355.488 213.178C357.726 214.031 360.091 214.498 362.484 214.555C371.884 214.749 390.509 212.529 398.303 204.596C407.721 195.01 397.432 199.555 397.432 199.555C397.432 199.555 361.634 215.178 348.988 198.603C347.581 196.759 346.685 194.08 346.429 191.774C345.984 187.777 347.759 182.495 350.09 177.895C353.247 171.671 368.398 143.671 335.501 135.514C327.923 133.71 316.915 132.089 302.724 138.064C294.445 141.549 296.278 143.598 299.244 144.7Z" fill="#BDD6F9"/>
<path d="M306.57 134.247L297.041 137.814C293.753 139.045 292.084 142.709 293.315 145.998L293.788 147.26C295.019 150.549 298.683 152.218 301.971 150.987L311.501 147.421C314.789 146.19 316.458 142.526 315.227 139.236L314.755 137.975C313.524 134.684 309.86 133.016 306.57 134.247Z" fill="#42B2E9"/>
<path d="M248.081 144.566L216.657 156.328C215.012 156.942 214.177 158.774 214.794 160.419L214.918 160.75C215.532 162.395 217.364 163.229 219.01 162.614L250.433 150.853C252.079 150.236 252.914 148.404 252.297 146.76L252.173 146.429C251.558 144.784 249.726 143.95 248.081 144.566Z" fill="#3F566B"/>
<path d="M256.852 168L225.427 179.76C223.783 180.376 222.948 182.208 223.565 183.852L223.687 184.184C224.304 185.828 226.136 186.662 227.78 186.046L259.205 174.286C260.849 173.67 261.683 171.838 261.068 170.194L260.944 169.862C260.33 168.218 258.496 167.384 256.852 168Z" fill="#3F566B"/>
<path d="M285.864 128.573L260.396 138.104C257.106 139.335 255.437 143.001 256.668 146.289L265.365 169.523C266.596 172.811 270.26 174.48 273.549 173.249L299.019 163.718C302.307 162.487 303.976 158.823 302.745 155.533L294.049 132.299C292.819 129.011 289.154 127.342 285.864 128.573Z" fill="#42B2E9"/>
<path d="M263.028 134.669L237.558 144.201C234.269 145.432 232.601 149.096 233.832 152.387L244.206 180.105C245.437 183.393 249.101 185.062 252.39 183.831L277.86 174.3C281.148 173.069 282.817 169.405 281.586 166.115L271.211 138.396C269.98 135.106 266.316 133.438 263.028 134.669Z" fill="#C5ECFF"/>
<path d="M267.014 129.043L266.814 129.118C264.622 129.938 263.509 132.382 264.33 134.574L278.863 173.406C279.684 175.598 282.126 176.711 284.318 175.891L284.518 175.815C286.712 174.994 287.824 172.552 287.003 170.36L272.471 131.528C271.65 129.336 269.206 128.223 267.014 129.043Z" fill="#42B2E9"/>
<path d="M7.3142 153.872C7.3142 153.872 58.4645 139.497 51.0384 172.616C49.7487 177.857 31.1844 204.837 53.2972 217.792C58.0454 220.573 63.5248 221.806 69.0274 221.777C78.8932 221.725 94.5335 219.827 101.56 212.676C110.976 203.09 100.689 207.635 100.689 207.635C100.689 207.635 71.3125 219.719 56.1994 210.087C51.039 206.798 48.6999 200.43 50.1012 194.472C50.8175 191.513 51.9081 188.658 53.3469 185.975C56.6337 179.819 71.6553 151.751 38.7574 143.594C31.179 141.79 20.1719 140.17 5.97939 146.144C-8.21311 152.12 7.3142 153.872 7.3142 153.872Z" fill="#BDD6F9"/>
<path d="M108.438 200.222L98.9093 203.789C95.62 205.02 93.9514 208.684 95.1825 211.974L95.6549 213.235C96.8859 216.525 100.55 218.194 103.84 216.961L113.368 213.396C116.657 212.165 118.326 208.501 117.095 205.21L116.622 203.949C115.391 200.659 111.727 198.991 108.438 200.222Z" fill="#42B2E9"/>
<path d="M124.536 184.546L110.415 189.831C107.125 191.062 105.457 194.726 106.688 198.016L113.497 216.21C114.729 219.5 118.393 221.168 121.682 219.937L135.804 214.652C139.093 213.421 140.761 209.757 139.531 206.467L132.721 188.273C131.49 184.983 127.826 183.315 124.536 184.546Z" fill="#42B2E9"/>
<path d="M148.045 170.538L126.986 178.42C123.697 179.651 122.029 183.315 123.26 186.605L133.634 214.324C134.865 217.614 138.529 219.282 141.818 218.051L162.877 210.169C166.167 208.938 167.836 205.274 166.605 201.984L156.231 174.266C155 170.975 151.336 169.307 148.045 170.538Z" fill="#C5ECFF"/>
<path d="M152.507 164.799L152.307 164.874C150.114 165.694 149.002 168.138 149.823 170.33L164.355 209.162C165.176 211.354 167.619 212.467 169.812 211.646L170.012 211.571C172.204 210.75 173.317 208.308 172.496 206.114L157.963 167.284C157.142 165.092 154.7 163.979 152.507 164.799Z" fill="#42B2E9"/>
<path d="M206.283 140.06C205.524 139.975 204.828 139.601 204.34 139.014C203.854 138.426 203.614 137.674 203.67 136.912L205.241 108.211C205.335 106.497 206.783 105.194 208.425 105.346L210.715 105.558C212.357 105.71 213.534 107.254 213.304 108.956L209.443 137.445C209.355 138.204 208.976 138.899 208.387 139.386C207.798 139.874 207.044 140.115 206.283 140.06Z" fill="#FDD000"/>
<path d="M192.715 142.532C192.479 142.602 192.232 142.624 191.987 142.599C191.743 142.571 191.506 142.497 191.291 142.379C191.074 142.262 190.885 142.103 190.73 141.911C190.576 141.72 190.461 141.499 190.391 141.265L184.78 123.411C184.617 122.903 184.662 122.351 184.904 121.877C185.148 121.401 185.569 121.043 186.078 120.879L187.53 120.44C187.779 120.367 188.041 120.348 188.299 120.381C188.556 120.414 188.803 120.501 189.026 120.635C189.248 120.769 189.44 120.947 189.59 121.159C189.74 121.371 189.845 121.612 189.896 121.866L194.055 140.159C194.172 140.65 194.098 141.168 193.849 141.608C193.601 142.047 193.197 142.377 192.715 142.532Z" fill="#FDD000"/>
<path d="M185.143 152.83C184.138 154.076 182.115 154.061 180.559 152.797L152.925 130.345C151.273 129.003 150.787 126.783 151.853 125.463L153.34 123.622C154.408 122.3 156.597 122.409 158.159 123.86L184.308 148.155C185.781 149.522 186.149 151.586 185.143 152.83Z" fill="#FDD000"/>
<path d="M197.918 210.821C198.629 211.096 199.206 211.637 199.527 212.329C199.85 213.021 199.889 213.811 199.641 214.532L190.791 241.879C190.263 243.513 188.53 244.402 186.98 243.835L184.819 243.046C183.271 242.48 182.527 240.686 183.184 239.101L194.193 212.542C194.473 211.831 195.015 211.255 195.71 210.934C196.404 210.613 197.194 210.572 197.918 210.821Z" fill="#FDD000"/>
<path d="M211.667 211.893C211.912 211.886 212.158 211.928 212.388 212.016C212.616 212.104 212.827 212.236 213.005 212.405C213.184 212.573 213.328 212.776 213.428 213C213.528 213.224 213.584 213.467 213.59 213.713L214.456 232.408C214.483 232.941 214.3 233.461 213.943 233.858C213.587 234.256 213.087 234.496 212.556 234.524L211.039 234.577C210.778 234.583 210.521 234.536 210.28 234.438C210.039 234.34 209.823 234.193 209.641 234.007C209.461 233.82 209.32 233.599 209.229 233.355C209.14 233.112 209.101 232.853 209.114 232.594L209.765 213.847C209.779 213.341 209.983 212.859 210.335 212.498C210.687 212.136 211.163 211.921 211.667 211.893Z" fill="#FDD000"/>
<path d="M221.618 203.874C222.908 202.926 224.859 203.457 226.04 205.077L247.025 233.842C248.278 235.56 248.182 237.83 246.813 238.835L244.906 240.236C243.537 241.241 241.446 240.576 240.306 238.775L221.229 208.608C220.157 206.911 220.328 204.821 221.618 203.874Z" fill="#FDD000"/>
<path d="M478.188 59.4243C479.026 59.4243 479.445 62.6079 479.445 68.9753C479.445 75.2588 479.026 78.4006 478.188 78.4006L469.894 78.5263V94.3609C469.894 95.2825 468.176 95.9527 464.741 96.3716C461.306 96.7905 458.332 97 455.819 97L450.666 96.7487C446.393 96.4135 444.257 95.6595 444.257 94.4866V78.9033H419.248C417.07 76.725 415.101 73.9184 413.342 70.4833C411.582 66.9645 410.703 64.4511 410.703 62.9431C410.703 61.3512 410.954 60.0945 411.457 59.1729L438.979 10.4124C439.314 9.74216 441.869 9.23948 446.645 8.90435C451.504 8.56923 456.573 8.40167 461.851 8.40167C467.129 8.40167 469.768 8.61112 469.768 9.03002L469.894 59.4243H478.188ZM447.901 59.5499V33.2846L433.198 59.5499H447.901ZM446.958 214.257C436.485 214.257 427.898 210.403 421.195 202.695C414.576 194.987 411.267 183.719 411.267 168.889C411.267 154.06 414.618 142.875 421.321 135.335C428.023 127.711 436.653 123.899 447.209 123.899C457.849 123.899 466.437 127.669 472.972 135.209C479.507 142.75 482.774 154.102 482.774 169.266C482.774 184.431 479.423 195.741 472.72 203.198C466.102 210.57 457.514 214.257 446.958 214.257ZM446.958 148.028C443.774 148.028 441.051 149.871 438.789 153.557C436.611 157.16 435.522 162.313 435.522 169.015C435.522 175.717 436.569 180.87 438.663 184.473C440.842 187.991 443.607 189.751 446.958 189.751C450.393 189.751 453.158 187.95 455.252 184.347C457.43 180.744 458.52 175.592 458.52 168.889C458.52 162.187 457.389 157.034 455.126 153.432C452.948 149.829 450.225 148.028 446.958 148.028ZM478.188 291.424C479.026 291.424 479.445 294.608 479.445 300.975C479.445 307.259 479.026 310.401 478.188 310.401L469.894 310.526V326.361C469.894 327.282 468.176 327.953 464.741 328.372C461.306 328.791 458.332 329 455.819 329L450.666 328.749C446.393 328.414 444.257 327.66 444.257 326.487V310.903H419.248C417.07 308.725 415.101 305.918 413.342 302.483C411.582 298.965 410.703 296.451 410.703 294.943C410.703 293.351 410.954 292.094 411.457 291.173L438.979 242.412C439.314 241.742 441.869 241.239 446.645 240.904C451.504 240.569 456.573 240.402 461.851 240.402C467.129 240.402 469.768 240.611 469.768 241.03L469.894 291.424H478.188ZM447.901 291.55V265.285L433.198 291.55H447.901Z" fill="white"/>
</svg>
